<svg width="10" height="10" viewBox="0 0 10 10" fill="none" xmlns="http://www.w3.org/2000/svg">
<path d="M4.31818 3H5.68182C5.68182 2.83424 5.60998 2.67527 5.48212 2.55806C5.35425 2.44085 5.18083 2.375 5 2.375C4.81917 2.375 4.64575 2.44085 4.51788 2.55806C4.39002 2.67527 4.31818 2.83424 4.31818 3ZM3.90909 3C3.90909 2.73478 4.02403 2.48043 4.22861 2.29289C4.4332 2.10536 4.71067 2 5 2C5.28933 2 5.5668 2.10536 5.77139 2.29289C5.97597 2.48043 6.09091 2.73478 6.09091 3H7.79545C7.8497 3 7.90173 3.01975 7.94009 3.05492C7.97845 3.09008 8 3.13777 8 3.1875C8 3.23723 7.97845 3.28492 7.94009 3.32008C7.90173 3.35525 7.8497 3.375 7.79545 3.375H7.43818L7.10627 7.02575C7.08213 7.29133 6.94998 7.5389 6.73604 7.71935C6.52211 7.89981 6.242 7.99998 5.95127 8H4.04873C3.758 7.99998 3.47789 7.89981 3.26396 7.71935C3.05002 7.5389 2.91787 7.29133 2.89373 7.02575L2.56182 3.375H2.20455C2.1503 3.375 2.09827 3.35525 2.05991 3.32008C2.02155 3.28492 2 3.23723 2 3.1875C2 3.13777 2.02155 3.09008 2.05991 3.05492C2.09827 3.01975 2.1503 3 2.20455 3H3.90909ZM4.59091 4.4375C4.59091 4.38777 4.56936 4.34008 4.531 4.30492C4.49264 4.26975 4.44061 4.25 4.38636 4.25C4.33211 4.25 4.28009 4.26975 4.24173 4.30492C4.20337 4.34008 4.18182 4.38777 4.18182 4.4375V6.5625C4.18182 6.61223 4.20337 6.65992 4.24173 6.69508C4.28009 6.73025 4.33211 6.75 4.38636 6.75C4.44061 6.75 4.49264 6.73025 4.531 6.69508C4.56936 6.65992 4.59091 6.61223 4.59091 6.5625V4.4375ZM5.61364 4.25C5.55939 4.25 5.50736 4.26975 5.469 4.30492C5.43064 4.34008 5.40909 4.38777 5.40909 4.4375V6.5625C5.40909 6.61223 5.43064 6.65992 5.469 6.69508C5.50736 6.73025 5.55939 6.75 5.61364 6.75C5.66789 6.75 5.71991 6.73025 5.75827 6.69508C5.79663 6.65992 5.81818 6.61223 5.81818 6.5625V4.4375C5.81818 4.38777 5.79663 4.34008 5.75827 4.30492C5.71991 4.26975 5.66789 4.25 5.61364 4.25Z" fill="#F2F2F2"/>
<path d="M4.31818 3H5.68182C5.68182 2.83424 5.60998 2.67527 5.48212 2.55806C5.35425 2.44085 5.18083 2.375 5 2.375C4.81917 2.375 4.64575 2.44085 4.51788 2.55806C4.39002 2.67527 4.31818 2.83424 4.31818 3ZM3.90909 3C3.90909 2.73478 4.02403 2.48043 4.22861 2.29289C4.4332 2.10536 4.71067 2 5 2C5.28933 2 5.5668 2.10536 5.77139 2.29289C5.97597 2.48043 6.09091 2.73478 6.09091 3H7.79545C7.8497 3 7.90173 3.01975 7.94009 3.05492C7.97845 3.09008 8 3.13777 8 3.1875C8 3.23723 7.97845 3.28492 7.94009 3.32008C7.90173 3.35525 7.8497 3.375 7.79545 3.375H7.43818L7.10627 7.02575C7.08213 7.29133 6.94998 7.5389 6.73604 7.71935C6.52211 7.89981 6.242 7.99998 5.95127 8H4.04873C3.758 7.99998 3.47789 7.89981 3.26396 7.71935C3.05002 7.5389 2.91787 7.29133 2.89373 7.02575L2.56182 3.375H2.20455C2.1503 3.375 2.09827 3.35525 2.05991 3.32008C2.02155 3.28492 2 3.23723 2 3.1875C2 3.13777 2.02155 3.09008 2.05991 3.05492C2.09827 3.01975 2.1503 3 2.20455 3H3.90909ZM4.59091 4.4375C4.59091 4.38777 4.56936 4.34008 4.531 4.30492C4.49264 4.26975 4.44061 4.25 4.38636 4.25C4.33211 4.25 4.28009 4.26975 4.24173 4.30492C4.20337 4.34008 4.18182 4.38777 4.18182 4.4375V6.5625C4.18182 6.61223 4.20337 6.65992 4.24173 6.69508C4.28009 6.73025 4.33211 6.75 4.38636 6.75C4.44061 6.75 4.49264 6.73025 4.531 6.69508C4.56936 6.65992 4.59091 6.61223 4.59091 6.5625V4.4375ZM5.61364 4.25C5.55939 4.25 5.50736 4.26975 5.469 4.30492C5.43064 4.34008 5.40909 4.38777 5.40909 4.4375V6.5625C5.40909 6.61223 5.43064 6.65992 5.469 6.69508C5.50736 6.73025 5.55939 6.75 5.61364 6.75C5.66789 6.75 5.71991 6.73025 5.75827 6.69508C5.79663 6.65992 5.81818 6.61223 5.81818 6.5625V4.4375C5.81818 4.38777 5.79663 4.34008 5.75827 4.30492C5.71991 4.26975 5.66789 4.25 5.61364 4.25Z" fill="#F2F2F2"/>
</svg>
