<svg width="92" height="92" viewBox="0 0 92 92" fill="none" xmlns="http://www.w3.org/2000/svg">
<path d="M3 45C3 21.2518 22.2518 2 46 2C69.7482 2 89 21.2518 89 45C89 68.7482 69.7482 88 46 88C22.2518 88 3 68.7482 3 45Z" fill="#27272A"/>
<path fill-rule="evenodd" clip-rule="evenodd" d="M5 45C5 67.6437 23.3563 86 46 86C68.6437 86 87 67.6437 87 45C87 22.3563 68.6437 4 46 4C23.3563 4 5 22.3563 5 45ZM46 2C22.2518 2 3 21.2518 3 45C3 68.7482 22.2518 88 46 88C69.7482 88 89 68.7482 89 45C89 21.2518 69.7482 2 46 2Z" fill="#09090B" fill-opacity="0.25"/>
<g filter="url(#filter0_dii_60_520)">
<path d="M17 45C17 28.9837 29.9837 16 46 16V16C62.0163 16 75 28.9837 75 45V45C75 61.0163 62.0163 74 46 74V74C29.9837 74 17 61.0163 17 45V45Z" fill="#09090B"/>
<path d="M46 73C30.536 73 18 60.464 18 45C18 29.536 30.536 17 46 17C61.464 17 74 29.536 74 45C74 60.464 61.464 73 46 73Z" stroke="#09090B" stroke-width="2"/>
</g>
<mask id="path-5-inside-1_60_520" fill="white">
<path fill-rule="evenodd" clip-rule="evenodd" d="M19 45C19 59.9117 31.0883 72 46 72C60.9117 72 73 59.9117 73 45C73 30.0883 60.9117 18 46 18C31.0883 18 19 30.0883 19 45ZM46 16C29.9837 16 17 28.9837 17 45C17 61.0163 29.9837 74 46 74C62.0163 74 75 61.0163 75 45C75 28.9837 62.0163 16 46 16Z"/>
</mask>
<g filter="url(#filter1_i_60_520)">
<path fill-rule="evenodd" clip-rule="evenodd" d="M19 45C19 59.9117 31.0883 72 46 72C60.9117 72 73 59.9117 73 45C73 30.0883 60.9117 18 46 18C31.0883 18 19 30.0883 19 45ZM46 16C29.9837 16 17 28.9837 17 45C17 61.0163 29.9837 74 46 74C62.0163 74 75 61.0163 75 45C75 28.9837 62.0163 16 46 16Z" fill="#09090B" fill-opacity="0.25"/>
</g>
<path d="M46 70C32.1929 70 21 58.8071 21 45H17C17 61.0163 29.9837 74 46 74V70ZM71 45C71 58.8071 59.8071 70 46 70V74C62.0163 74 75 61.0163 75 45H71ZM46 20C59.8071 20 71 31.1929 71 45H75C75 28.9837 62.0163 16 46 16V20ZM21 45C21 31.1929 32.1929 20 46 20V16C29.9837 16 17 28.9837 17 45H21ZM19 45C19 30.0883 31.0883 18 46 18V14C28.8792 14 15 27.8792 15 45H19ZM46 72C31.0883 72 19 59.9117 19 45H15C15 62.1208 28.8792 76 46 76V72ZM73 45C73 59.9117 60.9117 72 46 72V76C63.1208 76 77 62.1208 77 45H73ZM46 18C60.9117 18 73 30.0883 73 45H77C77 27.8792 63.1208 14 46 14V18Z" fill="white" fill-opacity="0.25" mask="url(#path-5-inside-1_60_520)"/>
<g filter="url(#filter2_diii_60_520)">
<path d="M29 45C29 35.6112 36.6112 28 46 28V28C55.3888 28 63 35.6112 63 45V45C63 54.3888 55.3888 62 46 62V62C36.6112 62 29 54.3888 29 45V45Z" fill="#09090B"/>
</g>
<g filter="url(#filter3_di_60_520)">
<mask id="path-8-inside-2_60_520" fill="white">
<path fill-rule="evenodd" clip-rule="evenodd" d="M32 45C32 52.732 38.268 59 46 59C53.732 59 60 52.732 60 45C60 37.268 53.732 31 46 31C38.268 31 32 37.268 32 45ZM46 28C36.6112 28 29 35.6112 29 45C29 54.3888 36.6112 62 46 62C55.3888 62 63 54.3888 63 45C63 35.6112 55.3888 28 46 28Z"/>
</mask>
<path fill-rule="evenodd" clip-rule="evenodd" d="M32 45C32 52.732 38.268 59 46 59C53.732 59 60 52.732 60 45C60 37.268 53.732 31 46 31C38.268 31 32 37.268 32 45ZM46 28C36.6112 28 29 35.6112 29 45C29 54.3888 36.6112 62 46 62C55.3888 62 63 54.3888 63 45C63 35.6112 55.3888 28 46 28Z" fill="#27272A" fill-opacity="0.25" shape-rendering="crispEdges"/>
<path d="M46 56C39.9249 56 35 51.0751 35 45H29C29 54.3888 36.6112 62 46 62V56ZM57 45C57 51.0751 52.0751 56 46 56V62C55.3888 62 63 54.3888 63 45H57ZM46 34C52.0751 34 57 38.9249 57 45H63C63 35.6112 55.3888 28 46 28V34ZM35 45C35 38.9249 39.9249 34 46 34V28C36.6112 28 29 35.6112 29 45H35ZM32 45C32 37.268 38.268 31 46 31V25C34.9543 25 26 33.9543 26 45H32ZM46 59C38.268 59 32 52.732 32 45H26C26 56.0457 34.9543 65 46 65V59ZM60 45C60 52.732 53.732 59 46 59V65C57.0457 65 66 56.0457 66 45H60ZM46 31C53.732 31 60 37.268 60 45H66C66 33.9543 57.0457 25 46 25V31Z" fill="white" fill-opacity="0.25" mask="url(#path-8-inside-2_60_520)"/>
</g>
<defs>
<filter id="filter0_dii_60_520" x="0.200001" y="0.200001" width="91.6" height="91.6" filterUnits="userSpaceOnUse" color-interpolation-filters="sRGB">
<feFlood flood-opacity="0" result="BackgroundImageFix"/>
<feColorMatrix in="SourceAlpha" type="matrix" values="0 0 0 0 0 0 0 0 0 0 0 0 0 0 0 0 0 0 127 0" result="hardAlpha"/>
<feOffset dy="1"/>
<feGaussianBlur stdDeviation="8.4"/>
<feComposite in2="hardAlpha" operator="out"/>
<feColorMatrix type="matrix" values="0 0 0 0 0.0156863 0 0 0 0 0.0196078 0 0 0 0 0.0235294 0 0 0 0.25 0"/>
<feBlend mode="normal" in2="BackgroundImageFix" result="effect1_dropShadow_60_520"/>
<feBlend mode="normal" in="SourceGraphic" in2="effect1_dropShadow_60_520" result="shape"/>
<feColorMatrix in="SourceAlpha" type="matrix" values="0 0 0 0 0 0 0 0 0 0 0 0 0 0 0 0 0 0 127 0" result="hardAlpha"/>
<feOffset dy="5"/>
<feGaussianBlur stdDeviation="6.4"/>
<feComposite in2="hardAlpha" operator="arithmetic" k2="-1" k3="1"/>
<feColorMatrix type="matrix" values="0 0 0 0 0.152941 0 0 0 0 0.152941 0 0 0 0 0.164706 0 0 0 1 0"/>
<feBlend mode="normal" in2="shape" result="effect2_innerShadow_60_520"/>
<feColorMatrix in="SourceAlpha" type="matrix" values="0 0 0 0 0 0 0 0 0 0 0 0 0 0 0 0 0 0 127 0" result="hardAlpha"/>
<feOffset dy="-6"/>
<feGaussianBlur stdDeviation="3.9"/>
<feComposite in2="hardAlpha" operator="arithmetic" k2="-1" k3="1"/>
<feColorMatrix type="matrix" values="0 0 0 0 0.152941 0 0 0 0 0.152941 0 0 0 0 0.164706 0 0 0 0.5 0"/>
<feBlend mode="normal" in2="effect2_innerShadow_60_520" result="effect3_innerShadow_60_520"/>
</filter>
<filter id="filter1_i_60_520" x="17" y="16" width="58" height="63" filterUnits="userSpaceOnUse" color-interpolation-filters="sRGB">
<feFlood flood-opacity="0" result="BackgroundImageFix"/>
<feBlend mode="normal" in="SourceGraphic" in2="BackgroundImageFix" result="shape"/>
<feColorMatrix in="SourceAlpha" type="matrix" values="0 0 0 0 0 0 0 0 0 0 0 0 0 0 0 0 0 0 127 0" result="hardAlpha"/>
<feOffset dy="5"/>
<feGaussianBlur stdDeviation="6.4"/>
<feComposite in2="hardAlpha" operator="arithmetic" k2="-1" k3="1"/>
<feColorMatrix type="matrix" values="0 0 0 0 0.715556 0 0 0 0 0.720936 0 0 0 0 0.766667 0 0 0 0.25 0"/>
<feBlend mode="normal" in2="shape" result="effect1_innerShadow_60_520"/>
</filter>
<filter id="filter2_diii_60_520" x="26" y="22" width="40" height="45" filterUnits="userSpaceOnUse" color-interpolation-filters="sRGB">
<feFlood flood-opacity="0" result="BackgroundImageFix"/>
<feColorMatrix in="SourceAlpha" type="matrix" values="0 0 0 0 0 0 0 0 0 0 0 0 0 0 0 0 0 0 127 0" result="hardAlpha"/>
<feOffset/>
<feGaussianBlur stdDeviation="1.5"/>
<feComposite in2="hardAlpha" operator="out"/>
<feColorMatrix type="matrix" values="0 0 0 0 0.0156863 0 0 0 0 0.0196078 0 0 0 0 0.0235294 0 0 0 0.2 0"/>
<feBlend mode="normal" in2="BackgroundImageFix" result="effect1_dropShadow_60_520"/>
<feBlend mode="normal" in="SourceGraphic" in2="effect1_dropShadow_60_520" result="shape"/>
<feColorMatrix in="SourceAlpha" type="matrix" values="0 0 0 0 0 0 0 0 0 0 0 0 0 0 0 0 0 0 127 0" result="hardAlpha"/>
<feOffset dy="5"/>
<feGaussianBlur stdDeviation="6.4"/>
<feComposite in2="hardAlpha" operator="arithmetic" k2="-1" k3="1"/>
<feColorMatrix type="matrix" values="0 0 0 0 0.0352941 0 0 0 0 0.0352941 0 0 0 0 0.0431373 0 0 0 0.25 0"/>
<feBlend mode="normal" in2="shape" result="effect2_innerShadow_60_520"/>
<feColorMatrix in="SourceAlpha" type="matrix" values="0 0 0 0 0 0 0 0 0 0 0 0 0 0 0 0 0 0 127 0" result="hardAlpha"/>
<feOffset dy="-4"/>
<feGaussianBlur stdDeviation="2.9"/>
<feComposite in2="hardAlpha" operator="arithmetic" k2="-1" k3="1"/>
<feColorMatrix type="matrix" values="0 0 0 0 0.0352941 0 0 0 0 0.0352941 0 0 0 0 0.0431373 0 0 0 0.25 0"/>
<feBlend mode="normal" in2="effect2_innerShadow_60_520" result="effect3_innerShadow_60_520"/>
<feColorMatrix in="SourceAlpha" type="matrix" values="0 0 0 0 0 0 0 0 0 0 0 0 0 0 0 0 0 0 127 0" result="hardAlpha"/>
<feOffset dy="-6"/>
<feGaussianBlur stdDeviation="3.9"/>
<feComposite in2="hardAlpha" operator="arithmetic" k2="-1" k3="1"/>
<feColorMatrix type="matrix" values="0 0 0 0 0.152941 0 0 0 0 0.152941 0 0 0 0 0.164706 0 0 0 0.5 0"/>
<feBlend mode="normal" in2="effect3_innerShadow_60_520" result="effect4_innerShadow_60_520"/>
</filter>
<filter id="filter3_di_60_520" x="26" y="25" width="40" height="42" filterUnits="userSpaceOnUse" color-interpolation-filters="sRGB">
<feFlood flood-opacity="0" result="BackgroundImageFix"/>
<feColorMatrix in="SourceAlpha" type="matrix" values="0 0 0 0 0 0 0 0 0 0 0 0 0 0 0 0 0 0 127 0" result="hardAlpha"/>
<feOffset/>
<feGaussianBlur stdDeviation="1.5"/>
<feComposite in2="hardAlpha" operator="out"/>
<feColorMatrix type="matrix" values="0 0 0 0 0.0156863 0 0 0 0 0.0196078 0 0 0 0 0.0235294 0 0 0 0.2 0"/>
<feBlend mode="normal" in2="BackgroundImageFix" result="effect1_dropShadow_60_520"/>
<feBlend mode="normal" in="SourceGraphic" in2="effect1_dropShadow_60_520" result="shape"/>
<feColorMatrix in="SourceAlpha" type="matrix" values="0 0 0 0 0 0 0 0 0 0 0 0 0 0 0 0 0 0 127 0" result="hardAlpha"/>
<feOffset dy="5"/>
<feGaussianBlur stdDeviation="6.4"/>
<feComposite in2="hardAlpha" operator="arithmetic" k2="-1" k3="1"/>
<feColorMatrix type="matrix" values="0 0 0 0 0.715556 0 0 0 0 0.720936 0 0 0 0 0.766667 0 0 0 0.25 0"/>
<feBlend mode="normal" in2="shape" result="effect2_innerShadow_60_520"/>
</filter>
</defs>
</svg>
