<svg width="24" height="24" viewBox="0 0 24 24" fill="none" xmlns="http://www.w3.org/2000/svg">
<path fill-rule="evenodd" clip-rule="evenodd" d="M12 3.75C10.9166 3.75 9.8438 3.96339 8.84286 4.37799C7.84193 4.7926 6.93245 5.40029 6.16637 6.16637C5.40029 6.93245 4.7926 7.84193 4.37799 8.84286C3.96339 9.8438 3.75 10.9166 3.75 12C3.75 13.0834 3.96339 14.1562 4.37799 15.1571C4.7926 16.1581 5.40029 17.0675 6.16637 17.8336C6.93245 18.5997 7.84193 19.2074 8.84286 19.622C9.61207 19.9406 10.4237 20.1404 11.25 20.2158V14.0357H8.78571V12.5357H11.25V10.7143C11.25 9.83339 11.5999 8.98857 12.2228 8.36568C12.8457 7.74279 13.6905 7.39286 14.5714 7.39286H15.2143V8.89286H14.5714C14.0884 8.89286 13.6251 9.08476 13.2835 9.42634C12.9419 9.76793 12.75 10.2312 12.75 10.7143V12.5357H15.2143V14.0357H12.75V20.2159C14.663 20.0413 16.4642 19.203 17.8336 17.8336C19.3808 16.2865 20.25 14.188 20.25 12C20.25 9.81196 19.3808 7.71354 17.8336 6.16637C16.2865 4.61919 14.188 3.75 12 3.75ZM8.26884 2.99217C9.45176 2.50219 10.7196 2.25 12 2.25C14.5859 2.25 17.0658 3.27723 18.8943 5.10571C20.7228 6.93419 21.75 9.41414 21.75 12C21.75 14.5859 20.7228 17.0658 18.8943 18.8943C17.0658 20.7228 14.5859 21.75 12 21.75C10.7196 21.75 9.45176 21.4978 8.26884 21.0078C7.08591 20.5178 6.01108 19.7997 5.10571 18.8943C4.20034 17.9889 3.48216 16.9141 2.99217 15.7312C2.50219 14.5482 2.25 13.2804 2.25 12C2.25 10.7196 2.50219 9.45176 2.99217 8.26884C3.48216 7.08591 4.20034 6.01108 5.10571 5.10571C6.01108 4.20034 7.08591 3.48216 8.26884 2.99217Z" fill="black"/>
</svg>
