<svg width="24" height="24" viewBox="0 0 24 24" fill="none" xmlns="http://www.w3.org/2000/svg">
<rect x="15.5" y="3" width="1" height="1" fill="black"/>
<rect x="17" y="3.5" width="1" height="1" fill="black"/>
<rect x="18.5" y="4" width="1" height="1" fill="black"/>
<rect x="14.5" y="3" width="1" height="1" fill="black"/>
<rect x="15" y="3" width="1" height="1" fill="black"/>
<rect x="16" y="3" width="1" height="1" fill="black"/>
<rect x="16.5" y="3.5" width="1" height="1" fill="black"/>
<rect x="17.5" y="3.5" width="1" height="1" fill="black"/>
<rect x="18" y="4" width="1" height="1" fill="black"/>
<rect x="14" y="3" width="1" height="1" fill="black"/>
<rect x="14" y="3.5" width="1" height="1" fill="black"/>
<rect x="13.5" y="4" width="1" height="1" fill="black"/>
<rect x="9" y="4" width="1" height="1" fill="black"/>
<rect x="9.5" y="4" width="1" height="1" fill="black"/>
<rect x="10" y="3.5" width="1" height="1" fill="black"/>
<rect x="10.5" y="3.5" width="1" height="1" fill="black"/>
<rect x="11" y="3.5" width="1" height="1" fill="black"/>
<rect x="11.5" y="3.5" width="1" height="1" fill="black"/>
<rect x="12" y="3.5" width="1" height="1" fill="black"/>
<rect x="12.5" y="3.5" width="1" height="1" fill="black"/>
<rect x="13" y="4" width="1" height="1" fill="black"/>
<rect x="8.5" y="3" width="1" height="1" fill="black"/>
<rect x="8.5" y="3.5" width="1" height="1" fill="black"/>
<rect x="8" y="3" width="1" height="1" fill="black"/>
<rect x="7" y="3" width="1" height="1" fill="black"/>
<rect x="5.5" y="3.5" width="1" height="1" fill="black"/>
<rect x="4" y="4" width="1" height="1" fill="black"/>
<rect x="4.5" y="4" width="1" height="1" fill="black"/>
<rect x="5" y="3.5" width="1" height="1" fill="black"/>
<rect x="6" y="3.5" width="1" height="1" fill="black"/>
<rect x="6.5" y="3" width="1" height="1" fill="black"/>
<rect x="7.5" y="3" width="1" height="1" fill="black"/>
<rect x="3.5" y="4.5" width="1" height="1" fill="black"/>
<rect x="3.5" y="5" width="1" height="1" fill="black"/>
<rect x="3" y="5.5" width="1" height="1" fill="black"/>
<rect x="3" y="6" width="1" height="1" fill="black"/>
<rect x="2.5" y="6.5" width="1" height="1" fill="black"/>
<rect x="2.5" y="7" width="1" height="1" fill="black"/>
<rect x="2" y="7.5" width="1" height="1" fill="black"/>
<rect x="2" y="8" width="1" height="1" fill="black"/>
<rect x="1.5" y="8.5" width="1" height="1" fill="black"/>
<rect x="1.5" y="9" width="1" height="1" fill="black"/>
<rect x="1.5" y="9.5" width="1" height="1" fill="black"/>
<rect x="1.5" y="10" width="1" height="1" fill="black"/>
<rect x="1" y="10.5" width="1" height="1" fill="black"/>
<rect x="1" y="11" width="1" height="1" fill="black"/>
<rect x="1" y="11.5" width="1" height="1" fill="black"/>
<rect x="1" y="12" width="1" height="1" fill="black"/>
<rect x="1" y="12.5" width="1" height="1" fill="black"/>
<rect x="1" y="13" width="1" height="1" fill="black"/>
<rect x="1" y="13.5" width="1" height="1" fill="black"/>
<rect x="1" y="14" width="1" height="1" fill="black"/>
<rect x="1" y="14.5" width="1" height="1" fill="black"/>
<rect x="1" y="15" width="1" height="1" fill="black"/>
<rect x="1" y="15.5" width="1" height="1" fill="black"/>
<rect x="1" y="16" width="1" height="1" fill="black"/>
<rect x="1.5" y="16.5" width="1" height="1" fill="black"/>
<rect x="2" y="17" width="1" height="1" fill="black"/>
<rect x="3" y="17.5" width="1" height="1" fill="black"/>
<rect x="4" y="18" width="1" height="1" fill="black"/>
<rect x="5.5" y="18.5" width="1" height="1" fill="black"/>
<rect x="2.5" y="17" width="1" height="1" fill="black"/>
<rect x="3.5" y="17.5" width="1" height="1" fill="black"/>
<rect x="4.5" y="18" width="1" height="1" fill="black"/>
<rect x="5" y="18.5" width="1" height="1" fill="black"/>
<rect x="6" y="18.5" width="1" height="1" fill="black"/>
<rect x="6" y="19" width="1" height="1" fill="black"/>
<rect x="7" y="17" width="1" height="1" fill="black"/>
<rect x="7" y="17.5" width="1" height="1" fill="black"/>
<rect x="6.5" y="18" width="1" height="1" fill="black"/>
<rect x="6.5" y="18.5" width="1" height="1" fill="black"/>
<rect x="7.5" y="17" width="1" height="1" fill="black"/>
<rect x="6.5" y="16.5" width="1" height="1" fill="black"/>
<rect x="6" y="16.5" width="1" height="1" fill="black"/>
<rect x="5.5" y="16" width="1" height="1" fill="black"/>
<rect x="6" y="16" width="1" height="1" fill="black"/>
<rect x="6.5" y="16" width="1" height="1" fill="black"/>
<rect x="16" y="16" width="1" height="1" fill="black"/>
<rect x="8" y="16.5" width="1" height="1" fill="black"/>
<rect x="14.5" y="16.5" width="1" height="1" fill="black"/>
<rect x="7" y="16" width="1" height="1" fill="black"/>
<rect x="7.5" y="16.5" width="1" height="1" fill="black"/>
<rect x="8.5" y="16.5" width="1" height="1" fill="black"/>
<rect x="9" y="16.5" width="1" height="1" fill="black"/>
<rect x="9.5" y="17" width="1" height="1" fill="black"/>
<rect x="10" y="17" width="1" height="1" fill="black"/>
<rect x="10.5" y="17" width="1" height="1" fill="black"/>
<rect x="11" y="17" width="1" height="1" fill="black"/>
<rect x="11.5" y="17" width="1" height="1" fill="black"/>
<rect x="12" y="17" width="1" height="1" fill="black"/>
<rect x="12.5" y="17" width="1" height="1" fill="black"/>
<rect x="13" y="17" width="1" height="1" fill="black"/>
<rect x="13.5" y="16.5" width="1" height="1" fill="black"/>
<rect x="14" y="16.5" width="1" height="1" fill="black"/>
<rect x="15" y="16.5" width="1" height="1" fill="black"/>
<rect x="15.5" y="16" width="1" height="1" fill="black"/>
<rect x="16.5" y="16" width="1" height="1" fill="black"/>
<rect x="17" y="16" width="1" height="1" fill="black"/>
<rect x="16" y="16.5" width="1" height="1" fill="black"/>
<rect x="15.5" y="17" width="1" height="1" fill="black"/>
<rect x="16.5" y="16.5" width="1" height="1" fill="black"/>
<rect x="15" y="17" width="1" height="1" fill="black"/>
<rect x="15.5" y="17.5" width="1" height="1" fill="black"/>
<rect x="16" y="18" width="1" height="1" fill="black"/>
<rect x="16" y="18.5" width="1" height="1" fill="black"/>
<rect x="16.5" y="18.5" width="1" height="1" fill="black"/>
<rect x="16.5" y="19" width="1" height="1" fill="black"/>
<rect x="21" y="16.5" width="1" height="1" fill="black"/>
<rect x="20.5" y="17" width="1" height="1" fill="black"/>
<rect x="19.5" y="17.5" width="1" height="1" fill="black"/>
<rect x="18.5" y="18" width="1" height="1" fill="black"/>
<rect x="17" y="18.5" width="1" height="1" fill="black"/>
<rect x="17.5" y="18.5" width="1" height="1" fill="black"/>
<rect x="18" y="18" width="1" height="1" fill="black"/>
<rect x="19" y="17.5" width="1" height="1" fill="black"/>
<rect x="20" y="17" width="1" height="1" fill="black"/>
<rect x="21.5" y="16" width="1" height="1" fill="black"/>
<rect x="19" y="4.5" width="1" height="1" fill="black"/>
<rect x="19" y="5" width="1" height="1" fill="black"/>
<rect x="19.5" y="5.5" width="1" height="1" fill="black"/>
<rect x="19.5" y="6" width="1" height="1" fill="black"/>
<rect x="20" y="6.5" width="1" height="1" fill="black"/>
<rect x="20" y="7" width="1" height="1" fill="black"/>
<rect x="20.5" y="7.5" width="1" height="1" fill="black"/>
<rect x="20.5" y="8" width="1" height="1" fill="black"/>
<rect x="21" y="8.5" width="1" height="1" fill="black"/>
<rect x="21" y="9" width="1" height="1" fill="black"/>
<rect x="21" y="9.5" width="1" height="1" fill="black"/>
<rect x="21" y="10" width="1" height="1" fill="black"/>
<rect x="21.5" y="10.5" width="1" height="1" fill="black"/>
<rect x="21.5" y="11" width="1" height="1" fill="black"/>
<rect x="21.5" y="11.5" width="1" height="1" fill="black"/>
<rect x="21.5" y="12" width="1" height="1" fill="black"/>
<rect x="21.5" y="12.5" width="1" height="1" fill="black"/>
<rect x="21.5" y="13" width="1" height="1" fill="black"/>
<rect x="21.5" y="13.5" width="1" height="1" fill="black"/>
<rect x="22" y="14" width="1" height="1" fill="black"/>
<rect x="21.5" y="14.5" width="1" height="1" fill="black"/>
<rect x="21.5" y="15" width="1" height="1" fill="black"/>
<rect x="21.5" y="15.5" width="1" height="1" fill="black"/>
<rect x="6" y="12" width="1" height="1" fill="black"/>
<rect x="6" y="12.5" width="1" height="1" fill="black"/>
<rect x="6.5" y="13" width="1" height="1" fill="black"/>
<rect x="7" y="13.5" width="1" height="1" fill="black"/>
<rect x="7.5" y="13.5" width="1" height="1" fill="black"/>
<rect x="8" y="13.5" width="1" height="1" fill="black"/>
<rect x="6" y="11.5" width="1" height="1" fill="black"/>
<rect x="7.5" y="9.5" width="1" height="1" fill="black"/>
<rect x="6.5" y="10" width="1" height="1" fill="black"/>
<rect x="6" y="10.5" width="1" height="1" fill="black"/>
<rect x="6" y="11" width="1" height="1" fill="black"/>
<rect x="7" y="9.5" width="1" height="1" fill="black"/>
<rect x="8" y="9.5" width="1" height="1" fill="black"/>
<rect x="8.5" y="9.5" width="1" height="1" fill="black"/>
<rect x="9" y="10" width="1" height="1" fill="black"/>
<rect x="9.5" y="10.5" width="1" height="1" fill="black"/>
<rect x="9.5" y="11" width="1" height="1" fill="black"/>
<rect x="9.5" y="11.5" width="1" height="1" fill="black"/>
<rect x="9.5" y="12" width="1" height="1" fill="black"/>
<rect x="9.5" y="12.5" width="1" height="1" fill="black"/>
<rect x="9" y="13" width="1" height="1" fill="black"/>
<rect x="8.5" y="13.5" width="1" height="1" fill="black"/>
<rect x="13" y="12" width="1" height="1" fill="black"/>
<rect x="13" y="12.5" width="1" height="1" fill="black"/>
<rect x="13.5" y="13" width="1" height="1" fill="black"/>
<rect x="14" y="13.5" width="1" height="1" fill="black"/>
<rect x="14.5" y="13.5" width="1" height="1" fill="black"/>
<rect x="13" y="11.5" width="1" height="1" fill="black"/>
<rect x="14" y="9.5" width="1" height="1" fill="black"/>
<rect x="13.5" y="10" width="1" height="1" fill="black"/>
<rect x="13" y="10.5" width="1" height="1" fill="black"/>
<rect x="13" y="11" width="1" height="1" fill="black"/>
<rect x="14.5" y="9.5" width="1" height="1" fill="black"/>
<rect x="15.5" y="9.5" width="1" height="1" fill="black"/>
<rect x="16" y="10" width="1" height="1" fill="black"/>
<rect x="16.5" y="10.5" width="1" height="1" fill="black"/>
<rect x="16.5" y="11" width="1" height="1" fill="black"/>
<rect x="16.5" y="11.5" width="1" height="1" fill="black"/>
<rect x="15" y="9.5" width="1" height="1" fill="black"/>
<rect x="16.5" y="12" width="1" height="1" fill="black"/>
<rect x="16.5" y="12.5" width="1" height="1" fill="black"/>
<rect x="16" y="13" width="1" height="1" fill="black"/>
<rect x="15.5" y="13.5" width="1" height="1" fill="black"/>
<rect x="15" y="13.5" width="1" height="1" fill="black"/>
</svg>
