<svg width="24" height="24" viewBox="0 0 24 24" fill="none" xmlns="http://www.w3.org/2000/svg">
<path fill-rule="evenodd" clip-rule="evenodd" d="M12 5C10.6583 5.00034 9.34498 5.38626 8.21639 6.11181C7.0878 6.83736 6.1915 7.87197 5.63421 9.09244C5.07692 10.3129 4.88212 11.6678 5.073 12.9959C5.26389 14.3239 5.83241 15.5691 6.71088 16.5833C7.58936 17.5974 8.74077 18.3376 10.028 18.716C11.3153 19.0943 12.6841 19.0947 13.9716 18.7171C15.2591 18.3396 16.4109 17.6 17.29 16.5864C18.1691 15.5728 18.7383 14.3279 18.93 13H13C12.7348 13 12.4804 12.8946 12.2929 12.7071C12.1054 12.5196 12 12.2652 12 12C12 11.7348 12.1054 11.4804 12.2929 11.2929C12.4804 11.1054 12.7348 11 13 11H20C20.2652 11 20.5196 11.1054 20.7071 11.2929C20.8946 11.4804 21 11.7348 21 12C21.0002 14.0811 20.2792 16.098 18.9596 17.7074C17.64 19.3167 15.8035 20.419 13.7627 20.8266C11.7218 21.2342 9.60281 20.9219 7.7663 19.9429C5.9298 18.9639 4.48934 17.3787 3.69012 15.4571C2.89089 13.5356 2.78231 11.3964 3.38286 9.40379C3.9834 7.41118 5.25595 5.68827 6.98388 4.52835C8.71182 3.36843 10.7883 2.84319 12.86 3.04205C14.9316 3.2409 16.8703 4.15156 18.346 5.619C18.5288 5.80707 18.6303 6.05941 18.6288 6.32165C18.6273 6.58389 18.5229 6.83505 18.3379 7.02101C18.153 7.20697 17.9025 7.31285 17.6402 7.31584C17.378 7.31883 17.1251 7.21869 16.936 7.037C15.6257 5.73061 13.8503 4.99793 12 5Z" fill="black"/>
</svg>
