<svg width="24" height="24" viewBox="0 0 24 24" fill="none" xmlns="http://www.w3.org/2000/svg">
<rect x="18.6395" y="13.4674" width="0.507049" height="0.507049" fill="#0D0D0D" stroke="#0D0D0D" stroke-width="0.507049"/>
<rect x="18.6395" y="13.7718" width="0.507049" height="0.507049" fill="#0D0D0D" stroke="#0D0D0D" stroke-width="0.507049"/>
<rect x="18.6395" y="14.076" width="0.507049" height="0.507049" fill="#0D0D0D" stroke="#0D0D0D" stroke-width="0.507049"/>
<rect x="18.6395" y="14.3805" width="0.507049" height="0.507049" fill="#0D0D0D" stroke="#0D0D0D" stroke-width="0.507049"/>
<rect x="18.6395" y="14.6844" width="0.507049" height="0.507049" fill="#0D0D0D" stroke="#0D0D0D" stroke-width="0.507049"/>
<rect x="18.6395" y="14.9889" width="0.507049" height="0.507049" fill="#0D0D0D" stroke="#0D0D0D" stroke-width="0.507049"/>
<rect x="18.6395" y="15.2928" width="0.507049" height="0.507049" fill="#0D0D0D" stroke="#0D0D0D" stroke-width="0.507049"/>
<rect x="18.6395" y="15.5973" width="0.507049" height="0.507049" fill="#0D0D0D" stroke="#0D0D0D" stroke-width="0.507049"/>
<rect x="18.6395" y="15.9015" width="0.507049" height="0.507049" fill="#0D0D0D" stroke="#0D0D0D" stroke-width="0.507049"/>
<rect x="18.6395" y="16.2057" width="0.507049" height="0.507049" fill="#0D0D0D" stroke="#0D0D0D" stroke-width="0.507049"/>
<rect x="18.6395" y="16.5099" width="0.507049" height="0.507049" fill="#0D0D0D" stroke="#0D0D0D" stroke-width="0.507049"/>
<rect x="18.6395" y="16.8143" width="0.507049" height="0.507049" fill="#0D0D0D" stroke="#0D0D0D" stroke-width="0.507049"/>
<rect x="18.6395" y="17.1185" width="0.507049" height="0.507049" fill="#0D0D0D" stroke="#0D0D0D" stroke-width="0.507049"/>
<rect x="18.6395" y="17.4227" width="0.507049" height="0.507049" fill="#0D0D0D" stroke="#0D0D0D" stroke-width="0.507049"/>
<rect x="18.6395" y="17.7267" width="0.507049" height="0.507049" fill="#0D0D0D" stroke="#0D0D0D" stroke-width="0.507049"/>
<rect x="18.6395" y="18.0309" width="0.507049" height="0.507049" fill="#0D0D0D" stroke="#0D0D0D" stroke-width="0.507049"/>
<rect x="18.6395" y="18.3353" width="0.507049" height="0.507049" fill="#0D0D0D" stroke="#0D0D0D" stroke-width="0.507049"/>
<rect x="18.6395" y="18.6395" width="0.507049" height="0.507049" fill="#0D0D0D" stroke="#0D0D0D" stroke-width="0.507049"/>
<rect x="18.6395" y="13.1634" width="0.507049" height="0.507049" fill="#0D0D0D" stroke="#0D0D0D" stroke-width="0.507049"/>
<rect x="17.7267" y="11.0338" width="0.507049" height="0.507049" fill="#0D0D0D" stroke="#0D0D0D" stroke-width="0.507049"/>
<rect x="18.0309" y="11.338" width="0.507049" height="0.507049" fill="#0D0D0D" stroke="#0D0D0D" stroke-width="0.507049"/>
<rect x="18.3353" y="11.6422" width="0.507049" height="0.507049" fill="#0D0D0D" stroke="#0D0D0D" stroke-width="0.507049"/>
<rect x="18.3353" y="11.9464" width="0.507049" height="0.507049" fill="#0D0D0D" stroke="#0D0D0D" stroke-width="0.507049"/>
<rect x="18.6395" y="12.2508" width="0.507049" height="0.507049" fill="#0D0D0D" stroke="#0D0D0D" stroke-width="0.507049"/>
<rect x="18.6395" y="12.555" width="0.507049" height="0.507049" fill="#0D0D0D" stroke="#0D0D0D" stroke-width="0.507049"/>
<rect x="18.6395" y="12.8592" width="0.507049" height="0.507049" fill="#0D0D0D" stroke="#0D0D0D" stroke-width="0.507049"/>
<rect x="16.2057" y="10.121" width="0.507049" height="0.507049" fill="#0D0D0D" stroke="#0D0D0D" stroke-width="0.507049"/>
<rect x="17.1185" y="10.4254" width="0.507049" height="0.507049" fill="#0D0D0D" stroke="#0D0D0D" stroke-width="0.507049"/>
<rect x="17.4227" y="10.7296" width="0.507049" height="0.507049" fill="#0D0D0D" stroke="#0D0D0D" stroke-width="0.507049"/>
<rect x="15.5973" y="10.121" width="0.507049" height="0.507049" fill="#0D0D0D" stroke="#0D0D0D" stroke-width="0.507049"/>
<rect x="15.9015" y="10.121" width="0.507049" height="0.507049" fill="#0D0D0D" stroke="#0D0D0D" stroke-width="0.507049"/>
<rect x="16.5099" y="10.121" width="0.507049" height="0.507049" fill="#0D0D0D" stroke="#0D0D0D" stroke-width="0.507049"/>
<rect x="16.8143" y="10.4254" width="0.507049" height="0.507049" fill="#0D0D0D" stroke="#0D0D0D" stroke-width="0.507049"/>
<rect x="15.2928" y="10.121" width="0.507049" height="0.507049" fill="#0D0D0D" stroke="#0D0D0D" stroke-width="0.507049"/>
<rect x="14.6844" y="10.121" width="0.507049" height="0.507049" fill="#0D0D0D" stroke="#0D0D0D" stroke-width="0.507049"/>
<rect x="14.076" y="10.4254" width="0.507049" height="0.507049" fill="#0D0D0D" stroke="#0D0D0D" stroke-width="0.507049"/>
<rect x="13.4674" y="10.7296" width="0.507049" height="0.507049" fill="#0D0D0D" stroke="#0D0D0D" stroke-width="0.507049"/>
<rect x="13.1634" y="11.0338" width="0.507049" height="0.507049" fill="#0D0D0D" stroke="#0D0D0D" stroke-width="0.507049"/>
<rect x="13.7718" y="10.4254" width="0.507049" height="0.507049" fill="#0D0D0D" stroke="#0D0D0D" stroke-width="0.507049"/>
<rect x="14.3805" y="10.121" width="0.507049" height="0.507049" fill="#0D0D0D" stroke="#0D0D0D" stroke-width="0.507049"/>
<rect x="14.9889" y="10.121" width="0.507049" height="0.507049" fill="#0D0D0D" stroke="#0D0D0D" stroke-width="0.507049"/>
<rect x="13.1634" y="11.338" width="0.507049" height="0.507049" fill="#0D0D0D" stroke="#0D0D0D" stroke-width="0.507049"/>
<rect x="13.1634" y="10.4254" width="0.507049" height="0.507049" fill="#0D0D0D" stroke="#0D0D0D" stroke-width="0.507049"/>
<rect x="13.1634" y="10.7296" width="0.507049" height="0.507049" fill="#0D0D0D" stroke="#0D0D0D" stroke-width="0.507049"/>
<rect x="13.1634" y="10.121" width="0.507049" height="0.507049" fill="#0D0D0D" stroke="#0D0D0D" stroke-width="0.507049"/>
<rect x="10.4254" y="10.121" width="0.507049" height="0.507049" fill="#0D0D0D" stroke="#0D0D0D" stroke-width="0.507049"/>
<rect x="10.7296" y="10.121" width="0.507049" height="0.507049" fill="#0D0D0D" stroke="#0D0D0D" stroke-width="0.507049"/>
<rect x="11.0338" y="10.121" width="0.507049" height="0.507049" fill="#0D0D0D" stroke="#0D0D0D" stroke-width="0.507049"/>
<rect x="11.338" y="10.121" width="0.507049" height="0.507049" fill="#0D0D0D" stroke="#0D0D0D" stroke-width="0.507049"/>
<rect x="11.6422" y="10.121" width="0.507049" height="0.507049" fill="#0D0D0D" stroke="#0D0D0D" stroke-width="0.507049"/>
<rect x="11.9464" y="10.121" width="0.507049" height="0.507049" fill="#0D0D0D" stroke="#0D0D0D" stroke-width="0.507049"/>
<rect x="12.2508" y="10.121" width="0.507049" height="0.507049" fill="#0D0D0D" stroke="#0D0D0D" stroke-width="0.507049"/>
<rect x="12.555" y="10.121" width="0.507049" height="0.507049" fill="#0D0D0D" stroke="#0D0D0D" stroke-width="0.507049"/>
<rect x="12.8592" y="10.121" width="0.507049" height="0.507049" fill="#0D0D0D" stroke="#0D0D0D" stroke-width="0.507049"/>
<rect x="10.121" y="10.121" width="0.507049" height="0.507049" fill="#0D0D0D" stroke="#0D0D0D" stroke-width="0.507049"/>
<rect x="10.121" y="10.4254" width="0.507049" height="0.507049" fill="#0D0D0D" stroke="#0D0D0D" stroke-width="0.507049"/>
<rect x="10.121" y="10.7296" width="0.507049" height="0.507049" fill="#0D0D0D" stroke="#0D0D0D" stroke-width="0.507049"/>
<rect x="10.121" y="11.0338" width="0.507049" height="0.507049" fill="#0D0D0D" stroke="#0D0D0D" stroke-width="0.507049"/>
<rect x="10.121" y="11.338" width="0.507049" height="0.507049" fill="#0D0D0D" stroke="#0D0D0D" stroke-width="0.507049"/>
<rect x="10.121" y="11.6422" width="0.507049" height="0.507049" fill="#0D0D0D" stroke="#0D0D0D" stroke-width="0.507049"/>
<rect x="10.121" y="11.9464" width="0.507049" height="0.507049" fill="#0D0D0D" stroke="#0D0D0D" stroke-width="0.507049"/>
<rect x="10.121" y="12.2508" width="0.507049" height="0.507049" fill="#0D0D0D" stroke="#0D0D0D" stroke-width="0.507049"/>
<rect x="10.121" y="12.555" width="0.507049" height="0.507049" fill="#0D0D0D" stroke="#0D0D0D" stroke-width="0.507049"/>
<rect x="10.121" y="12.8592" width="0.507049" height="0.507049" fill="#0D0D0D" stroke="#0D0D0D" stroke-width="0.507049"/>
<rect x="10.121" y="13.1634" width="0.507049" height="0.507049" fill="#0D0D0D" stroke="#0D0D0D" stroke-width="0.507049"/>
<rect x="10.121" y="13.4674" width="0.507049" height="0.507049" fill="#0D0D0D" stroke="#0D0D0D" stroke-width="0.507049"/>
<rect x="10.121" y="13.7718" width="0.507049" height="0.507049" fill="#0D0D0D" stroke="#0D0D0D" stroke-width="0.507049"/>
<rect x="10.121" y="14.076" width="0.507049" height="0.507049" fill="#0D0D0D" stroke="#0D0D0D" stroke-width="0.507049"/>
<rect x="10.121" y="14.3805" width="0.507049" height="0.507049" fill="#0D0D0D" stroke="#0D0D0D" stroke-width="0.507049"/>
<rect x="10.121" y="14.6844" width="0.507049" height="0.507049" fill="#0D0D0D" stroke="#0D0D0D" stroke-width="0.507049"/>
<rect x="10.121" y="14.9889" width="0.507049" height="0.507049" fill="#0D0D0D" stroke="#0D0D0D" stroke-width="0.507049"/>
<rect x="10.121" y="15.2928" width="0.507049" height="0.507049" fill="#0D0D0D" stroke="#0D0D0D" stroke-width="0.507049"/>
<rect x="10.121" y="15.5973" width="0.507049" height="0.507049" fill="#0D0D0D" stroke="#0D0D0D" stroke-width="0.507049"/>
<rect x="10.121" y="15.9015" width="0.507049" height="0.507049" fill="#0D0D0D" stroke="#0D0D0D" stroke-width="0.507049"/>
<rect x="10.121" y="16.2057" width="0.507049" height="0.507049" fill="#0D0D0D" stroke="#0D0D0D" stroke-width="0.507049"/>
<rect x="10.121" y="16.5099" width="0.507049" height="0.507049" fill="#0D0D0D" stroke="#0D0D0D" stroke-width="0.507049"/>
<rect x="10.121" y="16.8143" width="0.507049" height="0.507049" fill="#0D0D0D" stroke="#0D0D0D" stroke-width="0.507049"/>
<rect x="10.121" y="17.1185" width="0.507049" height="0.507049" fill="#0D0D0D" stroke="#0D0D0D" stroke-width="0.507049"/>
<rect x="10.121" y="17.4227" width="0.507049" height="0.507049" fill="#0D0D0D" stroke="#0D0D0D" stroke-width="0.507049"/>
<rect x="10.121" y="17.7267" width="0.507049" height="0.507049" fill="#0D0D0D" stroke="#0D0D0D" stroke-width="0.507049"/>
<rect x="10.121" y="18.0309" width="0.507049" height="0.507049" fill="#0D0D0D" stroke="#0D0D0D" stroke-width="0.507049"/>
<rect x="10.121" y="18.3353" width="0.507049" height="0.507049" fill="#0D0D0D" stroke="#0D0D0D" stroke-width="0.507049"/>
<rect x="10.121" y="18.6395" width="0.507049" height="0.507049" fill="#0D0D0D" stroke="#0D0D0D" stroke-width="0.507049"/>
<rect x="10.4254" y="18.6395" width="0.507049" height="0.507049" fill="#0D0D0D" stroke="#0D0D0D" stroke-width="0.507049"/>
<rect x="10.7296" y="18.6395" width="0.507049" height="0.507049" fill="#0D0D0D" stroke="#0D0D0D" stroke-width="0.507049"/>
<rect x="11.0338" y="18.6395" width="0.507049" height="0.507049" fill="#0D0D0D" stroke="#0D0D0D" stroke-width="0.507049"/>
<rect x="11.338" y="18.6395" width="0.507049" height="0.507049" fill="#0D0D0D" stroke="#0D0D0D" stroke-width="0.507049"/>
<rect x="11.6422" y="18.6395" width="0.507049" height="0.507049" fill="#0D0D0D" stroke="#0D0D0D" stroke-width="0.507049"/>
<rect x="11.9464" y="18.6395" width="0.507049" height="0.507049" fill="#0D0D0D" stroke="#0D0D0D" stroke-width="0.507049"/>
<rect x="12.2508" y="18.6395" width="0.507049" height="0.507049" fill="#0D0D0D" stroke="#0D0D0D" stroke-width="0.507049"/>
<rect x="12.555" y="18.6395" width="0.507049" height="0.507049" fill="#0D0D0D" stroke="#0D0D0D" stroke-width="0.507049"/>
<rect x="12.8592" y="18.6395" width="0.507049" height="0.507049" fill="#0D0D0D" stroke="#0D0D0D" stroke-width="0.507049"/>
<rect x="13.1634" y="18.6395" width="0.507049" height="0.507049" fill="#0D0D0D" stroke="#0D0D0D" stroke-width="0.507049"/>
<rect x="13.1634" y="13.7718" width="0.507049" height="0.507049" fill="#0D0D0D" stroke="#0D0D0D" stroke-width="0.507049"/>
<rect x="13.1634" y="14.076" width="0.507049" height="0.507049" fill="#0D0D0D" stroke="#0D0D0D" stroke-width="0.507049"/>
<rect x="13.1634" y="14.3805" width="0.507049" height="0.507049" fill="#0D0D0D" stroke="#0D0D0D" stroke-width="0.507049"/>
<rect x="13.1634" y="14.6844" width="0.507049" height="0.507049" fill="#0D0D0D" stroke="#0D0D0D" stroke-width="0.507049"/>
<rect x="13.1634" y="14.9889" width="0.507049" height="0.507049" fill="#0D0D0D" stroke="#0D0D0D" stroke-width="0.507049"/>
<rect x="13.1634" y="15.2928" width="0.507049" height="0.507049" fill="#0D0D0D" stroke="#0D0D0D" stroke-width="0.507049"/>
<rect x="13.1634" y="15.5973" width="0.507049" height="0.507049" fill="#0D0D0D" stroke="#0D0D0D" stroke-width="0.507049"/>
<rect x="13.1634" y="15.9015" width="0.507049" height="0.507049" fill="#0D0D0D" stroke="#0D0D0D" stroke-width="0.507049"/>
<rect x="13.1634" y="16.2057" width="0.507049" height="0.507049" fill="#0D0D0D" stroke="#0D0D0D" stroke-width="0.507049"/>
<rect x="13.1634" y="16.5099" width="0.507049" height="0.507049" fill="#0D0D0D" stroke="#0D0D0D" stroke-width="0.507049"/>
<rect x="13.1634" y="16.8143" width="0.507049" height="0.507049" fill="#0D0D0D" stroke="#0D0D0D" stroke-width="0.507049"/>
<rect x="13.1634" y="17.1185" width="0.507049" height="0.507049" fill="#0D0D0D" stroke="#0D0D0D" stroke-width="0.507049"/>
<rect x="13.1634" y="17.4227" width="0.507049" height="0.507049" fill="#0D0D0D" stroke="#0D0D0D" stroke-width="0.507049"/>
<rect x="13.1634" y="17.7267" width="0.507049" height="0.507049" fill="#0D0D0D" stroke="#0D0D0D" stroke-width="0.507049"/>
<rect x="13.1634" y="18.0309" width="0.507049" height="0.507049" fill="#0D0D0D" stroke="#0D0D0D" stroke-width="0.507049"/>
<rect x="13.1634" y="18.3353" width="0.507049" height="0.507049" fill="#0D0D0D" stroke="#0D0D0D" stroke-width="0.507049"/>
<rect x="13.4674" y="12.555" width="0.507049" height="0.507049" fill="#0D0D0D" stroke="#0D0D0D" stroke-width="0.507049"/>
<rect x="13.1634" y="12.8592" width="0.507049" height="0.507049" fill="#0D0D0D" stroke="#0D0D0D" stroke-width="0.507049"/>
<rect x="13.1634" y="13.1634" width="0.507049" height="0.507049" fill="#0D0D0D" stroke="#0D0D0D" stroke-width="0.507049"/>
<rect x="13.1634" y="13.4674" width="0.507049" height="0.507049" fill="#0D0D0D" stroke="#0D0D0D" stroke-width="0.507049"/>
<rect x="13.7718" y="12.555" width="0.507049" height="0.507049" fill="#0D0D0D" stroke="#0D0D0D" stroke-width="0.507049"/>
<rect x="14.076" y="12.2508" width="0.507049" height="0.507049" fill="#0D0D0D" stroke="#0D0D0D" stroke-width="0.507049"/>
<rect x="14.3805" y="12.2508" width="0.507049" height="0.507049" fill="#0D0D0D" stroke="#0D0D0D" stroke-width="0.507049"/>
<rect x="15.2928" y="12.555" width="0.507049" height="0.507049" fill="#0D0D0D" stroke="#0D0D0D" stroke-width="0.507049"/>
<rect x="14.6844" y="12.2508" width="0.507049" height="0.507049" fill="#0D0D0D" stroke="#0D0D0D" stroke-width="0.507049"/>
<rect x="14.9889" y="12.2508" width="0.507049" height="0.507049" fill="#0D0D0D" stroke="#0D0D0D" stroke-width="0.507049"/>
<rect x="15.5973" y="12.8592" width="0.507049" height="0.507049" fill="#0D0D0D" stroke="#0D0D0D" stroke-width="0.507049"/>
<rect x="15.9015" y="13.1634" width="0.507049" height="0.507049" fill="#0D0D0D" stroke="#0D0D0D" stroke-width="0.507049"/>
<rect x="15.9015" y="13.4674" width="0.507049" height="0.507049" fill="#0D0D0D" stroke="#0D0D0D" stroke-width="0.507049"/>
<rect x="15.9015" y="13.7718" width="0.507049" height="0.507049" fill="#0D0D0D" stroke="#0D0D0D" stroke-width="0.507049"/>
<rect x="15.9015" y="14.076" width="0.507049" height="0.507049" fill="#0D0D0D" stroke="#0D0D0D" stroke-width="0.507049"/>
<rect x="15.9015" y="14.3805" width="0.507049" height="0.507049" fill="#0D0D0D" stroke="#0D0D0D" stroke-width="0.507049"/>
<rect x="15.9015" y="14.6844" width="0.507049" height="0.507049" fill="#0D0D0D" stroke="#0D0D0D" stroke-width="0.507049"/>
<rect x="15.9015" y="14.9889" width="0.507049" height="0.507049" fill="#0D0D0D" stroke="#0D0D0D" stroke-width="0.507049"/>
<rect x="15.9015" y="15.2928" width="0.507049" height="0.507049" fill="#0D0D0D" stroke="#0D0D0D" stroke-width="0.507049"/>
<rect x="15.9015" y="15.5973" width="0.507049" height="0.507049" fill="#0D0D0D" stroke="#0D0D0D" stroke-width="0.507049"/>
<rect x="15.9015" y="15.9015" width="0.507049" height="0.507049" fill="#0D0D0D" stroke="#0D0D0D" stroke-width="0.507049"/>
<rect x="15.9015" y="16.2057" width="0.507049" height="0.507049" fill="#0D0D0D" stroke="#0D0D0D" stroke-width="0.507049"/>
<rect x="15.9015" y="16.5099" width="0.507049" height="0.507049" fill="#0D0D0D" stroke="#0D0D0D" stroke-width="0.507049"/>
<rect x="15.9015" y="16.8143" width="0.507049" height="0.507049" fill="#0D0D0D" stroke="#0D0D0D" stroke-width="0.507049"/>
<rect x="15.9015" y="17.1185" width="0.507049" height="0.507049" fill="#0D0D0D" stroke="#0D0D0D" stroke-width="0.507049"/>
<rect x="15.9015" y="17.4227" width="0.507049" height="0.507049" fill="#0D0D0D" stroke="#0D0D0D" stroke-width="0.507049"/>
<rect x="15.9015" y="17.7267" width="0.507049" height="0.507049" fill="#0D0D0D" stroke="#0D0D0D" stroke-width="0.507049"/>
<rect x="15.9015" y="18.0309" width="0.507049" height="0.507049" fill="#0D0D0D" stroke="#0D0D0D" stroke-width="0.507049"/>
<rect x="15.9015" y="18.3353" width="0.507049" height="0.507049" fill="#0D0D0D" stroke="#0D0D0D" stroke-width="0.507049"/>
<rect x="15.9015" y="18.6395" width="0.507049" height="0.507049" fill="#0D0D0D" stroke="#0D0D0D" stroke-width="0.507049"/>
<rect x="16.2057" y="18.6395" width="0.507049" height="0.507049" fill="#0D0D0D" stroke="#0D0D0D" stroke-width="0.507049"/>
<rect x="16.5099" y="18.6395" width="0.507049" height="0.507049" fill="#0D0D0D" stroke="#0D0D0D" stroke-width="0.507049"/>
<rect x="16.8143" y="18.6395" width="0.507049" height="0.507049" fill="#0D0D0D" stroke="#0D0D0D" stroke-width="0.507049"/>
<rect x="17.1185" y="18.6395" width="0.507049" height="0.507049" fill="#0D0D0D" stroke="#0D0D0D" stroke-width="0.507049"/>
<rect x="17.4227" y="18.6395" width="0.507049" height="0.507049" fill="#0D0D0D" stroke="#0D0D0D" stroke-width="0.507049"/>
<rect x="17.7267" y="18.6395" width="0.507049" height="0.507049" fill="#0D0D0D" stroke="#0D0D0D" stroke-width="0.507049"/>
<rect x="18.0309" y="18.6395" width="0.507049" height="0.507049" fill="#0D0D0D" stroke="#0D0D0D" stroke-width="0.507049"/>
<rect x="18.3353" y="18.6395" width="0.507049" height="0.507049" fill="#0D0D0D" stroke="#0D0D0D" stroke-width="0.507049"/>
<rect x="7.99156" y="8.29601" width="0.507049" height="0.507049" fill="#0D0D0D" stroke="#0D0D0D" stroke-width="0.507049"/>
<rect x="7.07872" y="8.59996" width="0.507049" height="0.507049" fill="#0D0D0D" stroke="#0D0D0D" stroke-width="0.507049"/>
<rect x="7.38292" y="8.59996" width="0.507049" height="0.507049" fill="#0D0D0D" stroke="#0D0D0D" stroke-width="0.507049"/>
<rect x="7.68736" y="8.29601" width="0.507049" height="0.507049" fill="#0D0D0D" stroke="#0D0D0D" stroke-width="0.507049"/>
<rect x="6.77452" y="8.59996" width="0.507049" height="0.507049" fill="#0D0D0D" stroke="#0D0D0D" stroke-width="0.507049"/>
<rect x="7.99156" y="7.99156" width="0.507049" height="0.507049" fill="#0D0D0D" stroke="#0D0D0D" stroke-width="0.507049"/>
<rect x="8.59996" y="7.07872" width="0.507049" height="0.507049" fill="#0D0D0D" stroke="#0D0D0D" stroke-width="0.507049"/>
<rect x="8.59996" y="7.38292" width="0.507049" height="0.507049" fill="#0D0D0D" stroke="#0D0D0D" stroke-width="0.507049"/>
<rect x="8.29601" y="7.68736" width="0.507049" height="0.507049" fill="#0D0D0D" stroke="#0D0D0D" stroke-width="0.507049"/>
<rect x="8.29601" y="7.99156" width="0.507049" height="0.507049" fill="#0D0D0D" stroke="#0D0D0D" stroke-width="0.507049"/>
<rect x="8.59996" y="6.77452" width="0.507049" height="0.507049" fill="#0D0D0D" stroke="#0D0D0D" stroke-width="0.507049"/>
<rect x="7.38292" y="5.25352" width="0.507049" height="0.507049" fill="#0D0D0D" stroke="#0D0D0D" stroke-width="0.507049"/>
<rect x="7.99156" y="5.55748" width="0.507049" height="0.507049" fill="#0D0D0D" stroke="#0D0D0D" stroke-width="0.507049"/>
<rect x="8.29601" y="5.86192" width="0.507049" height="0.507049" fill="#0D0D0D" stroke="#0D0D0D" stroke-width="0.507049"/>
<rect x="8.29601" y="6.16612" width="0.507049" height="0.507049" fill="#0D0D0D" stroke="#0D0D0D" stroke-width="0.507049"/>
<rect x="8.59996" y="6.47032" width="0.507049" height="0.507049" fill="#0D0D0D" stroke="#0D0D0D" stroke-width="0.507049"/>
<rect x="7.07872" y="5.25352" width="0.507049" height="0.507049" fill="#0D0D0D" stroke="#0D0D0D" stroke-width="0.507049"/>
<rect x="7.68736" y="5.25352" width="0.507049" height="0.507049" fill="#0D0D0D" stroke="#0D0D0D" stroke-width="0.507049"/>
<rect x="6.77452" y="5.25352" width="0.507049" height="0.507049" fill="#0D0D0D" stroke="#0D0D0D" stroke-width="0.507049"/>
<rect x="6.47032" y="5.25352" width="0.507049" height="0.507049" fill="#0D0D0D" stroke="#0D0D0D" stroke-width="0.507049"/>
<rect x="5.86192" y="5.55748" width="0.507049" height="0.507049" fill="#0D0D0D" stroke="#0D0D0D" stroke-width="0.507049"/>
<rect x="6.16612" y="5.25352" width="0.507049" height="0.507049" fill="#0D0D0D" stroke="#0D0D0D" stroke-width="0.507049"/>
<rect x="5.55748" y="5.55748" width="0.507049" height="0.507049" fill="#0D0D0D" stroke="#0D0D0D" stroke-width="0.507049"/>
<rect x="5.55748" y="5.86192" width="0.507049" height="0.507049" fill="#0D0D0D" stroke="#0D0D0D" stroke-width="0.507049"/>
<rect x="5.25352" y="6.16612" width="0.507049" height="0.507049" fill="#0D0D0D" stroke="#0D0D0D" stroke-width="0.507049"/>
<rect x="5.25352" y="6.47032" width="0.507049" height="0.507049" fill="#0D0D0D" stroke="#0D0D0D" stroke-width="0.507049"/>
<rect x="5.25352" y="6.77452" width="0.507049" height="0.507049" fill="#0D0D0D" stroke="#0D0D0D" stroke-width="0.507049"/>
<rect x="5.25352" y="7.07872" width="0.507049" height="0.507049" fill="#0D0D0D" stroke="#0D0D0D" stroke-width="0.507049"/>
<rect x="5.25352" y="7.38292" width="0.507049" height="0.507049" fill="#0D0D0D" stroke="#0D0D0D" stroke-width="0.507049"/>
<rect x="5.25352" y="7.68736" width="0.507049" height="0.507049" fill="#0D0D0D" stroke="#0D0D0D" stroke-width="0.507049"/>
<rect x="5.55748" y="7.99156" width="0.507049" height="0.507049" fill="#0D0D0D" stroke="#0D0D0D" stroke-width="0.507049"/>
<rect x="5.86192" y="8.29601" width="0.507049" height="0.507049" fill="#0D0D0D" stroke="#0D0D0D" stroke-width="0.507049"/>
<rect x="6.16612" y="8.29601" width="0.507049" height="0.507049" fill="#0D0D0D" stroke="#0D0D0D" stroke-width="0.507049"/>
<rect x="6.47032" y="8.59996" width="0.507049" height="0.507049" fill="#0D0D0D" stroke="#0D0D0D" stroke-width="0.507049"/>
<rect x="8.29601" y="10.4254" width="0.507049" height="0.507049" fill="#0D0D0D" stroke="#0D0D0D" stroke-width="0.507049"/>
<rect x="8.29601" y="10.7296" width="0.507049" height="0.507049" fill="#0D0D0D" stroke="#0D0D0D" stroke-width="0.507049"/>
<rect x="8.29601" y="11.0338" width="0.507049" height="0.507049" fill="#0D0D0D" stroke="#0D0D0D" stroke-width="0.507049"/>
<rect x="8.29601" y="11.338" width="0.507049" height="0.507049" fill="#0D0D0D" stroke="#0D0D0D" stroke-width="0.507049"/>
<rect x="8.29601" y="11.6422" width="0.507049" height="0.507049" fill="#0D0D0D" stroke="#0D0D0D" stroke-width="0.507049"/>
<rect x="8.29601" y="11.9464" width="0.507049" height="0.507049" fill="#0D0D0D" stroke="#0D0D0D" stroke-width="0.507049"/>
<rect x="8.29601" y="12.2508" width="0.507049" height="0.507049" fill="#0D0D0D" stroke="#0D0D0D" stroke-width="0.507049"/>
<rect x="8.29601" y="12.555" width="0.507049" height="0.507049" fill="#0D0D0D" stroke="#0D0D0D" stroke-width="0.507049"/>
<rect x="8.29601" y="12.8592" width="0.507049" height="0.507049" fill="#0D0D0D" stroke="#0D0D0D" stroke-width="0.507049"/>
<rect x="8.29601" y="13.1634" width="0.507049" height="0.507049" fill="#0D0D0D" stroke="#0D0D0D" stroke-width="0.507049"/>
<rect x="8.29601" y="13.4674" width="0.507049" height="0.507049" fill="#0D0D0D" stroke="#0D0D0D" stroke-width="0.507049"/>
<rect x="8.29601" y="13.7718" width="0.507049" height="0.507049" fill="#0D0D0D" stroke="#0D0D0D" stroke-width="0.507049"/>
<rect x="8.29601" y="14.076" width="0.507049" height="0.507049" fill="#0D0D0D" stroke="#0D0D0D" stroke-width="0.507049"/>
<rect x="8.29601" y="14.3805" width="0.507049" height="0.507049" fill="#0D0D0D" stroke="#0D0D0D" stroke-width="0.507049"/>
<rect x="8.29601" y="14.6844" width="0.507049" height="0.507049" fill="#0D0D0D" stroke="#0D0D0D" stroke-width="0.507049"/>
<rect x="8.29601" y="14.9889" width="0.507049" height="0.507049" fill="#0D0D0D" stroke="#0D0D0D" stroke-width="0.507049"/>
<rect x="8.29601" y="15.2928" width="0.507049" height="0.507049" fill="#0D0D0D" stroke="#0D0D0D" stroke-width="0.507049"/>
<rect x="8.29601" y="15.5973" width="0.507049" height="0.507049" fill="#0D0D0D" stroke="#0D0D0D" stroke-width="0.507049"/>
<rect x="8.29601" y="15.9015" width="0.507049" height="0.507049" fill="#0D0D0D" stroke="#0D0D0D" stroke-width="0.507049"/>
<rect x="8.29601" y="16.2057" width="0.507049" height="0.507049" fill="#0D0D0D" stroke="#0D0D0D" stroke-width="0.507049"/>
<rect x="8.29601" y="16.5099" width="0.507049" height="0.507049" fill="#0D0D0D" stroke="#0D0D0D" stroke-width="0.507049"/>
<rect x="8.29601" y="16.8143" width="0.507049" height="0.507049" fill="#0D0D0D" stroke="#0D0D0D" stroke-width="0.507049"/>
<rect x="8.29601" y="17.1185" width="0.507049" height="0.507049" fill="#0D0D0D" stroke="#0D0D0D" stroke-width="0.507049"/>
<rect x="8.29601" y="17.4227" width="0.507049" height="0.507049" fill="#0D0D0D" stroke="#0D0D0D" stroke-width="0.507049"/>
<rect x="8.29601" y="17.7267" width="0.507049" height="0.507049" fill="#0D0D0D" stroke="#0D0D0D" stroke-width="0.507049"/>
<rect x="8.29601" y="18.0309" width="0.507049" height="0.507049" fill="#0D0D0D" stroke="#0D0D0D" stroke-width="0.507049"/>
<rect x="8.29601" y="18.3353" width="0.507049" height="0.507049" fill="#0D0D0D" stroke="#0D0D0D" stroke-width="0.507049"/>
<rect x="8.29601" y="18.6395" width="0.507049" height="0.507049" fill="#0D0D0D" stroke="#0D0D0D" stroke-width="0.507049"/>
<rect x="8.29601" y="10.121" width="0.507049" height="0.507049" fill="#0D0D0D" stroke="#0D0D0D" stroke-width="0.507049"/>
<rect x="5.55748" y="10.121" width="0.507049" height="0.507049" fill="#0D0D0D" stroke="#0D0D0D" stroke-width="0.507049"/>
<rect x="5.86192" y="10.121" width="0.507049" height="0.507049" fill="#0D0D0D" stroke="#0D0D0D" stroke-width="0.507049"/>
<rect x="6.16612" y="10.121" width="0.507049" height="0.507049" fill="#0D0D0D" stroke="#0D0D0D" stroke-width="0.507049"/>
<rect x="6.47032" y="10.121" width="0.507049" height="0.507049" fill="#0D0D0D" stroke="#0D0D0D" stroke-width="0.507049"/>
<rect x="6.77452" y="10.121" width="0.507049" height="0.507049" fill="#0D0D0D" stroke="#0D0D0D" stroke-width="0.507049"/>
<rect x="7.07872" y="10.121" width="0.507049" height="0.507049" fill="#0D0D0D" stroke="#0D0D0D" stroke-width="0.507049"/>
<rect x="7.38292" y="10.121" width="0.507049" height="0.507049" fill="#0D0D0D" stroke="#0D0D0D" stroke-width="0.507049"/>
<rect x="7.68736" y="10.121" width="0.507049" height="0.507049" fill="#0D0D0D" stroke="#0D0D0D" stroke-width="0.507049"/>
<rect x="7.99156" y="10.121" width="0.507049" height="0.507049" fill="#0D0D0D" stroke="#0D0D0D" stroke-width="0.507049"/>
<rect x="5.55748" y="10.4254" width="0.507049" height="0.507049" fill="#0D0D0D" stroke="#0D0D0D" stroke-width="0.507049"/>
<rect x="5.55748" y="10.7296" width="0.507049" height="0.507049" fill="#0D0D0D" stroke="#0D0D0D" stroke-width="0.507049"/>
<rect x="5.55748" y="11.0338" width="0.507049" height="0.507049" fill="#0D0D0D" stroke="#0D0D0D" stroke-width="0.507049"/>
<rect x="5.55748" y="11.338" width="0.507049" height="0.507049" fill="#0D0D0D" stroke="#0D0D0D" stroke-width="0.507049"/>
<rect x="5.55748" y="11.6422" width="0.507049" height="0.507049" fill="#0D0D0D" stroke="#0D0D0D" stroke-width="0.507049"/>
<rect x="5.55748" y="11.9464" width="0.507049" height="0.507049" fill="#0D0D0D" stroke="#0D0D0D" stroke-width="0.507049"/>
<rect x="5.55748" y="12.2508" width="0.507049" height="0.507049" fill="#0D0D0D" stroke="#0D0D0D" stroke-width="0.507049"/>
<rect x="5.55748" y="12.555" width="0.507049" height="0.507049" fill="#0D0D0D" stroke="#0D0D0D" stroke-width="0.507049"/>
<rect x="5.55748" y="12.8592" width="0.507049" height="0.507049" fill="#0D0D0D" stroke="#0D0D0D" stroke-width="0.507049"/>
<rect x="5.55748" y="13.1634" width="0.507049" height="0.507049" fill="#0D0D0D" stroke="#0D0D0D" stroke-width="0.507049"/>
<rect x="5.55748" y="13.4674" width="0.507049" height="0.507049" fill="#0D0D0D" stroke="#0D0D0D" stroke-width="0.507049"/>
<rect x="5.55748" y="13.7718" width="0.507049" height="0.507049" fill="#0D0D0D" stroke="#0D0D0D" stroke-width="0.507049"/>
<rect x="5.55748" y="14.076" width="0.507049" height="0.507049" fill="#0D0D0D" stroke="#0D0D0D" stroke-width="0.507049"/>
<rect x="5.55748" y="14.3805" width="0.507049" height="0.507049" fill="#0D0D0D" stroke="#0D0D0D" stroke-width="0.507049"/>
<rect x="5.55748" y="14.6844" width="0.507049" height="0.507049" fill="#0D0D0D" stroke="#0D0D0D" stroke-width="0.507049"/>
<rect x="5.55748" y="14.9889" width="0.507049" height="0.507049" fill="#0D0D0D" stroke="#0D0D0D" stroke-width="0.507049"/>
<rect x="5.55748" y="15.2928" width="0.507049" height="0.507049" fill="#0D0D0D" stroke="#0D0D0D" stroke-width="0.507049"/>
<rect x="5.55748" y="15.5973" width="0.507049" height="0.507049" fill="#0D0D0D" stroke="#0D0D0D" stroke-width="0.507049"/>
<rect x="5.55748" y="15.9015" width="0.507049" height="0.507049" fill="#0D0D0D" stroke="#0D0D0D" stroke-width="0.507049"/>
<rect x="5.55748" y="16.2057" width="0.507049" height="0.507049" fill="#0D0D0D" stroke="#0D0D0D" stroke-width="0.507049"/>
<rect x="5.55748" y="16.5099" width="0.507049" height="0.507049" fill="#0D0D0D" stroke="#0D0D0D" stroke-width="0.507049"/>
<rect x="5.55748" y="16.8143" width="0.507049" height="0.507049" fill="#0D0D0D" stroke="#0D0D0D" stroke-width="0.507049"/>
<rect x="5.55748" y="17.1185" width="0.507049" height="0.507049" fill="#0D0D0D" stroke="#0D0D0D" stroke-width="0.507049"/>
<rect x="5.55748" y="17.4227" width="0.507049" height="0.507049" fill="#0D0D0D" stroke="#0D0D0D" stroke-width="0.507049"/>
<rect x="5.55748" y="17.7267" width="0.507049" height="0.507049" fill="#0D0D0D" stroke="#0D0D0D" stroke-width="0.507049"/>
<rect x="5.55748" y="18.0309" width="0.507049" height="0.507049" fill="#0D0D0D" stroke="#0D0D0D" stroke-width="0.507049"/>
<rect x="5.55748" y="18.3353" width="0.507049" height="0.507049" fill="#0D0D0D" stroke="#0D0D0D" stroke-width="0.507049"/>
<rect x="5.55748" y="18.6395" width="0.507049" height="0.507049" fill="#0D0D0D" stroke="#0D0D0D" stroke-width="0.507049"/>
<rect x="5.86192" y="18.6395" width="0.507049" height="0.507049" fill="#0D0D0D" stroke="#0D0D0D" stroke-width="0.507049"/>
<rect x="6.16612" y="18.6395" width="0.507049" height="0.507049" fill="#0D0D0D" stroke="#0D0D0D" stroke-width="0.507049"/>
<rect x="6.47032" y="18.6395" width="0.507049" height="0.507049" fill="#0D0D0D" stroke="#0D0D0D" stroke-width="0.507049"/>
<rect x="6.77452" y="18.6395" width="0.507049" height="0.507049" fill="#0D0D0D" stroke="#0D0D0D" stroke-width="0.507049"/>
<rect x="7.07872" y="18.6395" width="0.507049" height="0.507049" fill="#0D0D0D" stroke="#0D0D0D" stroke-width="0.507049"/>
<rect x="7.38292" y="18.6395" width="0.507049" height="0.507049" fill="#0D0D0D" stroke="#0D0D0D" stroke-width="0.507049"/>
<rect x="7.68736" y="18.6395" width="0.507049" height="0.507049" fill="#0D0D0D" stroke="#0D0D0D" stroke-width="0.507049"/>
<rect x="7.99156" y="18.6395" width="0.507049" height="0.507049" fill="#0D0D0D" stroke="#0D0D0D" stroke-width="0.507049"/>
<rect x="2.5" y="2.5" width="19.4001" height="19.4001" stroke="black"/>
</svg>
