<svg width="10" height="10" viewBox="0 0 10 10" fill="none" xmlns="http://www.w3.org/2000/svg">
<g clip-path="url(#clip0_23_191)">
<path d="M4.58341 0.833354C4.58341 0.603235 4.76996 0.416687 5.00008 0.416687V0.416687C7.53133 0.416687 9.58342 2.46877 9.58342 5.00002C9.58342 7.53127 7.53133 9.58335 5.00008 9.58335C2.46883 9.58335 0.416748 7.53127 0.416748 5.00002V5.00002C0.416748 4.7699 0.603296 4.58335 0.833415 4.58335V4.58335C1.06353 4.58335 1.25008 4.7699 1.25008 5.00002V5.00002C1.25008 5.7417 1.47002 6.46672 1.88207 7.08341C2.29413 7.70009 2.8798 8.18074 3.56502 8.46457C4.25024 8.7484 5.00424 8.82266 5.73167 8.67797C6.4591 8.53327 7.12728 8.17612 7.65173 7.65167C8.17618 7.12722 8.53333 6.45904 8.67803 5.73161C8.82272 5.00418 8.74846 4.25018 8.46463 3.56496C8.1808 2.87973 7.70015 2.29406 7.08347 1.88201C6.46679 1.46995 5.74176 1.25002 5.00008 1.25002V1.25002C4.76996 1.25002 4.58341 1.06347 4.58341 0.833354V0.833354Z" fill="#F2F2F2"/>
</g>
<defs>
<clipPath id="clip0_23_191">
<rect width="10" height="10" fill="white"/>
</clipPath>
</defs>
</svg>
