<svg width="139" height="32" viewBox="0 0 139 32" fill="none" xmlns="http://www.w3.org/2000/svg">
<path d="M57.758 9.52056C57.758 10.9233 56.6219 12.0594 55.2192 12.0594H124.402L128.845 12.0594C131.649 12.0594 133.922 14.3327 133.922 17.137V24.1187V24.7535C133.922 26.1562 135.058 27.2923 136.461 27.2923C137.864 27.2923 139 26.1562 139 24.7535C139 23.3508 137.864 22.2147 136.461 22.2147V21.5799V17.137C136.461 12.9306 133.051 9.52057 128.845 9.52057H124.402L57.758 9.52056Z" fill="#121212"/>
<path d="M55.2192 12.0594C56.6219 12.0594 57.758 10.9233 57.758 9.52056C57.758 8.11787 56.6219 6.98175 55.2192 6.98175C53.8165 6.98175 52.6804 8.11787 52.6804 9.52056C52.6804 10.9233 53.8165 12.0594 55.2192 12.0594Z" fill="#121212"/>
<path d="M112.681 26.8861C111.97 26.8861 111.454 26.666 111.132 26.226C110.81 25.7859 110.709 25.1681 110.827 24.3726L112.148 16.0707C112.266 15.3598 112.537 14.8267 112.96 14.4713C113.383 14.1158 113.95 13.9381 114.661 13.9381C115.372 13.9381 115.88 14.1581 116.184 14.5982C116.506 15.0213 116.607 15.6391 116.489 16.4515L116.337 17.4924L116.21 16.4515C116.717 15.5376 117.352 14.8859 118.114 14.4966C118.892 14.0904 119.671 13.8873 120.449 13.8873C121.363 13.8873 122.125 14.1243 122.734 14.5982C123.344 15.0552 123.784 15.7491 124.055 16.68L123.699 16.4261C124.173 15.5799 124.791 14.9452 125.552 14.522C126.314 14.0989 127.177 13.8873 128.142 13.8873C129.039 13.8873 129.801 14.0735 130.427 14.4459C131.053 14.8182 131.493 15.4022 131.747 16.1976C132.018 16.9931 132.052 18.0171 131.849 19.2696L130.986 24.7281C130.884 25.4389 130.622 25.9805 130.199 26.3529C129.775 26.7083 129.2 26.8861 128.472 26.8861C127.727 26.8861 127.186 26.666 126.847 26.226C126.526 25.7859 126.424 25.1681 126.543 24.3726L127.33 19.3204C127.431 18.6772 127.38 18.1864 127.177 17.8479C126.991 17.5094 126.653 17.3401 126.162 17.3401C125.569 17.3401 125.079 17.5771 124.689 18.051C124.3 18.508 124.029 19.1596 123.877 20.0059L123.141 24.7281C123.039 25.4389 122.768 25.9805 122.328 26.3529C121.905 26.7083 121.33 26.8861 120.602 26.8861C119.874 26.8861 119.341 26.666 119.002 26.226C118.681 25.7859 118.571 25.1681 118.672 24.3726L119.485 19.3204C119.586 18.6772 119.536 18.1864 119.332 17.8479C119.146 17.5094 118.808 17.3401 118.317 17.3401C117.724 17.3401 117.225 17.5771 116.819 18.051C116.43 18.508 116.167 19.1596 116.032 20.0059L115.296 24.7281C115.076 26.1667 114.204 26.8861 112.681 26.8861Z" fill="#121212"/>
<path d="M97.1319 26.8861C96.421 26.8861 95.9048 26.6576 95.5832 26.2006C95.2616 25.7267 95.1601 25.075 95.2786 24.2457L97.4112 10.7646C97.5296 10.0199 97.8004 11.0862 98.2236 10.7138C98.6636 10.3415 99.256 10.1553 100.001 10.1553C100.712 10.1553 101.228 10.3838 101.549 10.8408C101.888 11.2977 101.989 10.3161 101.854 11.1454L101.042 16.3246H100.762C101.202 15.5291 101.795 14.9282 102.54 14.522C103.284 14.0989 104.147 13.8873 105.129 13.8873C106.026 13.8873 106.788 14.0735 107.414 14.4459C108.057 14.8182 108.506 15.4022 108.76 16.1976C109.03 16.9931 109.073 18.0171 108.887 19.2696L108.049 24.6519C107.93 25.3966 107.651 25.9552 107.211 26.3275C106.771 26.6999 106.179 26.8861 105.434 26.8861C104.723 26.8861 104.198 26.6576 103.86 26.2006C103.538 25.7267 103.437 25.0835 103.555 24.2711L104.342 19.3458C104.461 18.6857 104.418 18.1864 104.215 17.8479C104.012 17.5094 103.623 17.3401 103.047 17.3401C102.353 17.3401 101.778 17.5771 101.321 18.051C100.881 18.508 100.593 19.1596 100.458 20.0059L99.7215 24.6519C99.4845 26.1413 98.6213 26.8861 97.1319 26.8861Z" fill="#121212"/>
<path d="M90.3442 26.9368C89.0579 26.9368 88.0085 26.7083 87.1961 26.2513C86.3836 25.7943 85.8166 25.1596 85.4951 24.3472C85.1904 23.5348 85.1142 22.6039 85.2666 21.5545L85.9267 17.4924H85.3681C84.8096 17.4924 84.3695 17.3739 84.0479 17.137C83.7433 16.8831 83.5909 16.5276 83.5909 16.0707C83.5909 15.4613 83.7856 14.9959 84.1749 14.6743C84.5811 14.3358 85.1312 14.1666 85.8251 14.1666H86.4598L86.7391 12.3894C86.8576 11.6954 87.1199 11.1792 87.5261 10.8407C87.9323 10.4853 88.4824 10.3076 89.1763 10.3076C89.9549 10.3076 90.5134 10.5191 90.8519 10.9423C91.1905 11.3654 91.3005 11.9747 91.182 12.7702L90.9789 14.1666H92.8068C93.3654 14.1666 93.8054 14.285 94.127 14.522C94.4486 14.742 94.6094 15.089 94.6094 15.5629C94.6094 16.1045 94.4232 16.5615 94.0508 16.9339C93.6954 17.3062 93.2046 17.4924 92.5783 17.4924H90.4457L89.811 21.3768C89.7095 22.0707 89.7941 22.57 90.0649 22.8747C90.3526 23.1624 90.7504 23.3063 91.2582 23.3063C91.512 23.3063 91.7236 23.2894 91.8929 23.2555C92.0621 23.2047 92.2483 23.1793 92.4514 23.1793C92.773 23.1793 93.0015 23.264 93.1369 23.4332C93.2892 23.6025 93.3654 23.9325 93.3654 24.4234C93.3654 25.2527 93.2215 25.8282 92.9338 26.1497C92.646 26.4713 92.2821 26.6829 91.8421 26.7845C91.6051 26.8352 91.3512 26.8691 91.0804 26.886C90.8266 26.9199 90.5811 26.9368 90.3442 26.9368Z" fill="#121212"/>
<path d="M72.1518 31.4559C71.5932 31.4559 71.1532 31.329 70.8316 31.0751C70.5269 30.8381 70.3577 30.5166 70.3238 30.1103C70.3069 29.7041 70.4338 29.2725 70.7046 28.8156L73.1165 24.9058L72.8626 26.7337L70.1207 16.9339C69.9515 16.3415 69.9261 15.8253 70.0446 15.3852C70.18 14.9282 70.4254 14.5728 70.7808 14.3189C71.1362 14.0651 71.5848 13.9381 72.1264 13.9381C72.7357 13.9381 73.2011 14.082 73.5227 14.3697C73.8443 14.6574 74.0897 15.1821 74.259 15.9438L75.7315 22.3416H74.8683L78.7273 15.5122C79.0489 14.9367 79.3874 14.5305 79.7428 14.2935C80.1152 14.0566 80.5891 13.9381 81.1646 13.9381C81.7231 13.9381 82.1632 14.0651 82.4847 14.3189C82.8063 14.5559 82.984 14.8775 83.0179 15.2837C83.0517 15.673 82.9248 16.1046 82.6371 16.5785L74.6144 29.8565C74.2759 30.4319 73.9289 30.8381 73.5735 31.0751C73.2181 31.329 72.7442 31.4559 72.1518 31.4559Z" fill="#121212"/>
<path d="M59.5118 26.886C58.801 26.886 58.2763 26.666 57.9378 26.2259C57.6162 25.7859 57.5146 25.1681 57.6331 24.3726L58.9279 16.0707C59.0464 15.3598 59.3172 14.8267 59.7403 14.4712C60.1804 14.1158 60.7559 13.9381 61.4667 13.9381C62.1776 13.9381 62.6938 14.1581 63.0154 14.5982C63.337 15.0213 63.4301 15.6391 63.2947 16.4515L63.1677 17.2385H62.9392C63.2439 16.2399 63.7686 15.4445 64.5133 14.8521C65.2749 14.2427 66.1466 13.9212 67.1283 13.8873C67.6699 13.8704 68.0592 13.9804 68.2961 14.2174C68.5331 14.4374 68.6516 14.8182 68.6516 15.3598C68.6516 16.1553 68.4654 16.7477 68.093 17.137C67.7376 17.5094 67.1875 17.7294 66.4428 17.7971L65.5034 17.8986C64.6233 17.9833 63.9886 18.2371 63.5993 18.6603C63.227 19.0834 62.9646 19.7435 62.8123 20.6406L62.1776 24.728C62.0591 25.4558 61.7798 25.9975 61.3398 26.3529C60.8997 26.7083 60.2904 26.886 59.5118 26.886Z" fill="#121212"/>
<path fill-rule="evenodd" clip-rule="evenodd" d="M50.6704 26.2006C50.992 26.6576 51.5082 26.8861 52.2191 26.8861C52.9808 26.8861 53.5731 26.6999 53.9963 26.3275C54.4363 25.9552 54.7071 25.3966 54.8087 24.6519L56.1035 16.5531C56.2389 15.7237 56.1373 15.0806 55.7988 14.6236C55.4773 14.1666 54.961 13.9381 54.2502 13.9381C53.5054 13.9381 52.9131 14.1243 52.473 14.4966C52.0499 14.869 51.7791 15.4275 51.6606 16.1723L50.3658 24.2711C50.2473 25.0835 50.3489 25.7267 50.6704 26.2006Z" fill="#121212"/>
<path d="M37.3904 26.886C36.6965 26.886 36.1803 26.6575 35.8418 26.2005C35.5202 25.7435 35.4271 25.1004 35.5625 24.271L37.6951 10.7392C37.8136 9.99445 38.0844 9.44437 38.5075 9.08893C38.9476 8.71658 39.54 8.5304 40.2847 8.5304C40.9956 8.5304 41.5118 8.76735 41.8334 9.24126C42.1719 9.69825 42.2734 10.3414 42.138 11.1708L40.8686 19.1934H40.9194L44.7022 15.2836C45.1254 14.8097 45.5231 14.4712 45.8955 14.2681C46.2678 14.0481 46.7333 13.9381 47.2918 13.9381C47.9181 13.9381 48.375 14.0989 48.6628 14.4204C48.9505 14.742 49.069 15.1482 49.0182 15.6391C48.9674 16.113 48.7389 16.5784 48.3327 17.0354L44.6515 20.8944L44.4991 19.295L47.5203 23.7633C47.8419 24.288 47.9858 24.7873 47.9519 25.2612C47.9181 25.7351 47.7234 26.1244 47.368 26.429C47.0295 26.7337 46.5725 26.886 45.997 26.886C45.32 26.886 44.7953 26.7591 44.423 26.5052C44.0506 26.2513 43.6698 25.8112 43.2805 25.185L40.5894 21.2245H40.5386L40.0054 24.6772C39.7685 26.1498 38.8968 26.886 37.3904 26.886Z" fill="#121212"/>
<path d="M24.2499 26.9368C23.3698 26.9368 22.6082 26.7507 21.965 26.3783C21.3388 26.0059 20.8902 25.422 20.6194 24.6265C20.3655 23.831 20.3317 22.807 20.5179 21.5545L21.4065 16.0199C21.5249 15.3091 21.7873 14.7844 22.1935 14.4459C22.5997 14.1074 23.1498 13.9381 23.8437 13.9381C24.6223 13.9381 25.1808 14.1497 25.5193 14.5728C25.8748 14.9959 25.9932 15.6053 25.8748 16.4008L25.0623 21.4784C24.9777 22.1385 25.0285 22.6378 25.2147 22.9763C25.4009 23.3148 25.7648 23.484 26.3064 23.484C26.9665 23.484 27.5165 23.2471 27.9566 22.7732C28.3967 22.2993 28.6844 21.6392 28.8198 20.7929L29.5814 16.0199C29.6999 15.3091 29.9623 14.7844 30.3685 14.4459C30.7747 14.1074 31.3248 13.9381 32.0187 13.9381C32.7803 13.9381 33.3304 14.1497 33.6689 14.5728C34.0244 14.9959 34.1428 15.6053 34.0244 16.4008L32.7042 24.8042C32.4841 26.1921 31.6717 26.8861 30.2669 26.8861C29.556 26.8861 29.0398 26.7083 28.7182 26.3529C28.3967 25.9805 28.2951 25.3966 28.4136 24.6011L28.6167 23.2302L28.5913 24.3472C28.1343 25.2274 27.525 25.879 26.7634 26.3021C26.0186 26.7253 25.1808 26.9368 24.2499 26.9368Z" fill="#121212"/>
<path d="M12.1041 26.886C11.3594 26.886 10.8178 26.6491 10.4793 26.1751C10.1577 25.7012 10.0646 25.0327 10.2 24.1695L11.2663 17.5178L11.7995 20.082L7.33114 11.7801C7.04341 11.2215 6.93339 10.6969 7.00109 10.206C7.08572 9.71518 7.31421 9.31743 7.68657 9.01277C8.07586 8.69119 8.58362 8.5304 9.20986 8.5304C9.73455 8.5304 10.1746 8.64887 10.53 8.88583C10.8855 9.12279 11.2324 9.58823 11.571 10.2822L14.1605 15.2836H13.2466L17.6387 10.0029C18.1126 9.42744 18.5273 9.03816 18.8827 8.83505C19.2551 8.63195 19.7036 8.5304 20.2283 8.5304C20.8376 8.5304 21.32 8.69965 21.6754 9.03816C22.0309 9.37667 22.2086 9.7998 22.2086 10.3076C22.2255 10.7984 22.0224 11.2892 21.5993 11.7801L14.5414 20.082L15.9123 17.5178L14.7952 24.5757C14.5414 26.1159 13.6443 26.886 12.1041 26.886Z" fill="#121212"/>
<path d="M4.77567 1.26941C4.86891 3.86733 6.95341 5.95183 9.55133 6.04508C6.95341 6.13832 4.86891 8.22282 4.77567 10.8207C4.68242 8.22282 2.59792 6.13832 0 6.04508C2.59792 5.95183 4.68242 3.86733 4.77567 1.26941Z" fill="#121212"/>
<path d="M8.56851 0C8.61188 1.20846 9.58151 2.17809 10.79 2.22146C9.58151 2.26483 8.61188 3.23446 8.56851 4.44292C8.52513 3.23446 7.5555 2.26483 6.34705 2.22146C7.5555 2.17809 8.52513 1.20846 8.56851 0Z" fill="#121212"/>
</svg>
