<svg width="219" height="50" viewBox="0 0 219 50" fill="none" xmlns="http://www.w3.org/2000/svg">
<path d="M91 15C91 17.21 89.21 19 87 19H196L203 19C207.418 19 211 22.5817 211 27V38V39.0001C211 41.2101 212.79 43.0001 215 43.0001C217.21 43.0001 219 41.2101 219 39.0001C219 36.7901 217.21 35.0001 215 35.0001V34V27C215 20.3726 209.627 15 203 15H196L91 15Z" fill="white"/>
<path d="M87 19C89.21 19 91 17.21 91 15C91 12.79 89.21 11 87 11C84.79 11 83 12.79 83 15C83 17.21 84.79 19 87 19Z" fill="white"/>
<path d="M177.533 42.36C176.413 42.36 175.6 42.0133 175.093 41.32C174.586 40.6267 174.426 39.6533 174.613 38.4L176.693 25.32C176.88 24.2 177.306 23.36 177.973 22.8C178.64 22.24 179.533 21.96 180.653 21.96C181.773 21.96 182.573 22.3067 183.053 23C183.56 23.6667 183.72 24.64 183.533 25.92L183.293 27.56L183.093 25.92C183.893 24.48 184.893 23.4533 186.093 22.84C187.32 22.2 188.546 21.88 189.773 21.88C191.213 21.88 192.413 22.2533 193.373 23C194.333 23.72 195.026 24.8133 195.453 26.28L194.893 25.88C195.64 24.5467 196.613 23.5467 197.813 22.88C199.013 22.2133 200.373 21.88 201.893 21.88C203.306 21.88 204.506 22.1733 205.493 22.76C206.48 23.3467 207.173 24.2667 207.573 25.52C208 26.7733 208.053 28.3867 207.733 30.36L206.373 38.96C206.213 40.08 205.8 40.9333 205.133 41.52C204.466 42.08 203.56 42.36 202.413 42.36C201.24 42.36 200.386 42.0133 199.853 41.32C199.346 40.6267 199.186 39.6533 199.373 38.4L200.613 30.44C200.773 29.4267 200.693 28.6533 200.373 28.12C200.08 27.5867 199.546 27.32 198.773 27.32C197.84 27.32 197.066 27.6933 196.453 28.44C195.84 29.16 195.413 30.1867 195.173 31.52L194.013 38.96C193.853 40.08 193.426 40.9333 192.733 41.52C192.066 42.08 191.16 42.36 190.013 42.36C188.866 42.36 188.026 42.0133 187.493 41.32C186.986 40.6267 186.813 39.6533 186.973 38.4L188.253 30.44C188.413 29.4267 188.333 28.6533 188.013 28.12C187.72 27.5867 187.186 27.32 186.413 27.32C185.48 27.32 184.693 27.6933 184.053 28.44C183.44 29.16 183.026 30.1867 182.813 31.52L181.653 38.96C181.306 41.2267 179.933 42.36 177.533 42.36Z" fill="white"/>
<path d="M153.035 42.36C151.915 42.36 151.102 42 150.595 41.28C150.088 40.5333 149.928 39.5067 150.115 38.2L153.475 16.96C153.662 15.7867 154.088 17.4667 154.755 16.88C155.448 16.2933 156.382 16 157.555 16C158.675 16 159.488 16.36 159.995 17.08C160.528 17.8 160.688 16.2533 160.475 17.56L159.195 25.72H158.755C159.448 24.4667 160.382 23.52 161.555 22.88C162.728 22.2133 164.088 21.88 165.635 21.88C167.048 21.88 168.248 22.1733 169.235 22.76C170.248 23.3467 170.955 24.2667 171.355 25.52C171.782 26.7733 171.848 28.3867 171.555 30.36L170.235 38.84C170.048 40.0133 169.608 40.8933 168.915 41.48C168.222 42.0667 167.288 42.36 166.115 42.36C164.995 42.36 164.168 42 163.635 41.28C163.128 40.5333 162.968 39.52 163.155 38.24L164.395 30.48C164.582 29.44 164.515 28.6533 164.195 28.12C163.875 27.5867 163.262 27.32 162.355 27.32C161.262 27.32 160.355 27.6933 159.635 28.44C158.942 29.16 158.488 30.1867 158.275 31.52L157.115 38.84C156.742 41.1867 155.382 42.36 153.035 42.36Z" fill="white"/>
<path d="M142.341 42.44C140.314 42.44 138.661 42.08 137.381 41.36C136.101 40.64 135.207 39.64 134.701 38.36C134.221 37.08 134.101 35.6133 134.341 33.96L135.381 27.56H134.501C133.621 27.56 132.927 27.3733 132.421 27C131.941 26.6 131.701 26.04 131.701 25.32C131.701 24.36 132.007 23.6267 132.621 23.12C133.261 22.5867 134.127 22.32 135.221 22.32H136.221L136.661 19.52C136.847 18.4267 137.261 17.6133 137.901 17.08C138.541 16.52 139.407 16.24 140.501 16.24C141.727 16.24 142.607 16.5733 143.141 17.24C143.674 17.9067 143.847 18.8667 143.661 20.12L143.341 22.32H146.221C147.101 22.32 147.794 22.5067 148.301 22.88C148.807 23.2267 149.061 23.7733 149.061 24.52C149.061 25.3733 148.767 26.0933 148.181 26.68C147.621 27.2667 146.847 27.56 145.861 27.56H142.501L141.501 33.68C141.341 34.7733 141.474 35.56 141.901 36.04C142.354 36.4933 142.981 36.72 143.781 36.72C144.181 36.72 144.514 36.6933 144.781 36.64C145.047 36.56 145.341 36.52 145.661 36.52C146.167 36.52 146.527 36.6533 146.741 36.92C146.981 37.1867 147.101 37.7067 147.101 38.48C147.101 39.7867 146.874 40.6933 146.421 41.2C145.967 41.7067 145.394 42.04 144.701 42.2C144.327 42.28 143.927 42.3333 143.501 42.36C143.101 42.4133 142.714 42.44 142.341 42.44Z" fill="white"/>
<path d="M113.678 49.56C112.798 49.56 112.105 49.36 111.598 48.96C111.118 48.5867 110.851 48.08 110.798 47.44C110.771 46.8 110.971 46.12 111.398 45.4L115.198 39.24L114.798 42.12L110.478 26.68C110.211 25.7467 110.171 24.9334 110.358 24.24C110.571 23.52 110.958 22.96 111.518 22.56C112.078 22.16 112.785 21.96 113.638 21.96C114.598 21.96 115.331 22.1867 115.838 22.64C116.345 23.0934 116.731 23.92 116.998 25.12L119.318 35.2H117.958L124.038 24.44C124.545 23.5334 125.078 22.8934 125.638 22.52C126.225 22.1467 126.971 21.96 127.878 21.96C128.758 21.96 129.451 22.16 129.958 22.56C130.465 22.9334 130.745 23.44 130.798 24.08C130.851 24.6934 130.651 25.3734 130.198 26.12L117.558 47.04C117.025 47.9467 116.478 48.5867 115.918 48.96C115.358 49.36 114.611 49.56 113.678 49.56Z" fill="white"/>
<path d="M93.7633 42.36C92.6433 42.36 91.8166 42.0133 91.2833 41.32C90.7766 40.6267 90.6166 39.6533 90.8033 38.4L92.8433 25.32C93.03 24.2 93.4566 23.36 94.1233 22.8C94.8166 22.24 95.7233 21.96 96.8433 21.96C97.9633 21.96 98.7766 22.3067 99.2833 23C99.79 23.6667 99.9366 24.64 99.7233 25.92L99.5233 27.16H99.1633C99.6433 25.5867 100.47 24.3333 101.643 23.4C102.843 22.44 104.217 21.9333 105.763 21.88C106.617 21.8533 107.23 22.0267 107.603 22.4C107.977 22.7467 108.163 23.3467 108.163 24.2C108.163 25.4533 107.87 26.3867 107.283 27C106.723 27.5867 105.857 27.9333 104.683 28.04L103.203 28.2C101.817 28.3333 100.817 28.7333 100.203 29.4C99.6166 30.0667 99.2033 31.1067 98.9633 32.52L97.9633 38.96C97.7766 40.1067 97.3366 40.96 96.6433 41.52C95.95 42.08 94.99 42.36 93.7633 42.36Z" fill="white"/>
<path fill-rule="evenodd" clip-rule="evenodd" d="M79.8333 41.28C80.3399 42 81.1533 42.36 82.2733 42.36C83.4733 42.36 84.4066 42.0667 85.0733 41.48C85.7666 40.8934 86.1933 40.0134 86.3533 38.84L88.3933 26.08C88.6066 24.7734 88.4466 23.76 87.9133 23.04C87.4066 22.32 86.5933 21.96 85.4733 21.96C84.2999 21.96 83.3666 22.2534 82.6733 22.84C82.0066 23.4267 81.5799 24.3067 81.3933 25.48L79.3533 38.24C79.1666 39.52 79.3266 40.5334 79.8333 41.28Z" fill="white"/>
<path d="M58.9101 42.36C57.8168 42.36 57.0035 42 56.4701 41.28C55.9635 40.56 55.8168 39.5467 56.0301 38.24L59.3901 16.92C59.5768 15.7467 60.0035 14.88 60.6701 14.32C61.3635 13.7333 62.2968 13.44 63.4701 13.44C64.5901 13.44 65.4035 13.8133 65.9101 14.56C66.4435 15.28 66.6035 16.2933 66.3901 17.6L64.3901 30.24H64.4701L70.4302 24.08C71.0968 23.3333 71.7235 22.8 72.3102 22.48C72.8968 22.1333 73.6301 21.96 74.5101 21.96C75.4968 21.96 76.2168 22.2133 76.6702 22.72C77.1235 23.2267 77.3101 23.8667 77.2301 24.64C77.1502 25.3867 76.7901 26.12 76.1501 26.84L70.3501 32.92L70.1102 30.4L74.8701 37.44C75.3768 38.2667 75.6035 39.0533 75.5501 39.8C75.4968 40.5467 75.1902 41.16 74.6301 41.64C74.0968 42.12 73.3768 42.36 72.4701 42.36C71.4035 42.36 70.5768 42.16 69.9902 41.76C69.4035 41.36 68.8035 40.6667 68.1901 39.68L63.9502 33.44H63.8701L63.0301 38.88C62.6568 41.2 61.2835 42.36 58.9101 42.36Z" fill="white"/>
<path d="M38.2067 42.44C36.8201 42.44 35.6201 42.1467 34.6067 41.56C33.6201 40.9734 32.9134 40.0534 32.4867 38.8C32.0867 37.5467 32.0334 35.9334 32.3267 33.96L33.7267 25.24C33.9134 24.12 34.3267 23.2934 34.9667 22.76C35.6067 22.2267 36.4734 21.96 37.5667 21.96C38.7934 21.96 39.6734 22.2934 40.2067 22.96C40.7667 23.6267 40.9534 24.5867 40.7667 25.84L39.4867 33.84C39.3534 34.88 39.4334 35.6667 39.7267 36.2C40.0201 36.7334 40.5934 37 41.4467 37C42.4867 37 43.3534 36.6267 44.0467 35.88C44.7401 35.1334 45.1934 34.0934 45.4067 32.76L46.6067 25.24C46.7934 24.12 47.2067 23.2934 47.8467 22.76C48.4867 22.2267 49.3534 21.96 50.4467 21.96C51.6467 21.96 52.5134 22.2934 53.0467 22.96C53.6067 23.6267 53.7934 24.5867 53.6067 25.84L51.5267 39.08C51.1801 41.2667 49.9001 42.36 47.6867 42.36C46.5667 42.36 45.7534 42.08 45.2467 41.52C44.7401 40.9334 44.5801 40.0134 44.7667 38.76L45.0867 36.6L45.0467 38.36C44.3267 39.7467 43.3667 40.7734 42.1667 41.44C40.9934 42.1067 39.6734 42.44 38.2067 42.44Z" fill="white"/>
<path d="M19.0705 42.36C17.8971 42.36 17.0438 41.9867 16.5105 41.24C16.0038 40.4933 15.8571 39.44 16.0705 38.08L17.7505 27.6L18.5905 31.64L11.5505 18.56C11.0971 17.68 10.9238 16.8533 11.0305 16.08C11.1638 15.3067 11.5238 14.68 12.1105 14.2C12.7238 13.6933 13.5238 13.44 14.5105 13.44C15.3371 13.44 16.0305 13.6267 16.5905 14C17.1505 14.3733 17.6971 15.1067 18.2305 16.2L22.3105 24.08H20.8705L27.7905 15.76C28.5371 14.8533 29.1905 14.24 29.7505 13.92C30.3371 13.6 31.0438 13.44 31.8705 13.44C32.8305 13.44 33.5905 13.7067 34.1505 14.24C34.7105 14.7733 34.9905 15.44 34.9905 16.24C35.0171 17.0133 34.6971 17.7867 34.0305 18.56L22.9105 31.64L25.0705 27.6L23.3105 38.72C22.9105 41.1467 21.4971 42.36 19.0705 42.36Z" fill="white"/>
<path d="M7.52425 2C7.67116 6.09313 10.9554 9.37734 15.0485 9.52425C10.9554 9.67116 7.67116 12.9554 7.52425 17.0485C7.37734 12.9554 4.09313 9.67116 0 9.52425C4.09313 9.37734 7.37734 6.09313 7.52425 2Z" fill="white"/>
<path d="M13.5 0C13.5683 1.90397 15.096 3.43166 17 3.5C15.096 3.56834 13.5683 5.09603 13.5 7C13.4317 5.09603 11.904 3.56834 10 3.5C11.904 3.43166 13.4317 1.90397 13.5 0Z" fill="white"/>
</svg>
