<svg width="28" height="28" viewBox="0 0 28 28" fill="none" xmlns="http://www.w3.org/2000/svg">
<path d="M1.14541 26.7244L0.777832 25.9466C1.75993 25.7669 2.25946 25.5451 2.98331 24.7798C2.98331 24.7798 4.08605 23.613 4.82121 21.2795C5.55637 18.9459 6.65911 15.2475 6.65911 15.2475C7.44635 15.396 7.86055 15.4147 8.49701 15.2475L6.65911 21.2795C6.65911 21.2795 6.29153 22.8352 6.29153 24.3909C6.29153 25.9466 7.39427 26.7244 7.39427 26.7244H1.14541Z" fill="#F0F0F0"/>
<path d="M27.2436 26.7244H17.3189C17.3189 26.7244 17.8725 26.3308 18.0541 25.9466C18.3109 25.4032 18.1834 24.9828 18.0541 24.3909C17.0612 19.8456 15.442 15.2634 14.0513 11.2365C12.787 7.42998 11.7072 5.21336 11.0701 4.5557C9.75632 3.58207 8.49701 3.77785 7.76185 5.33357C7.39428 6.11141 7.3987 7.29225 7.76185 8.44497C8.27543 10.0752 9.14878 11.056 10.7025 11.5564C11.6638 11.8659 13.2755 11.5564 13.2755 11.5564C13.2755 11.5564 11.5959 14.0547 9.96733 14.6678C8.20396 15.3316 6.47235 15.2114 4.82121 14.2788C3.19947 13.3629 2.47789 12.3342 2.24815 10.3896C1.88057 7.2782 3.41872 5.43172 4.45363 4.55572C6.29153 3.00002 6.54534 2.79501 8.12943 2.22217C10.5745 1.33801 13.5252 1.20629 15.8486 2.61109C18.172 4.01588 18.0541 4.16679 19.1568 6.11142C20.2596 8.05606 26.2543 24.5099 26.5084 25.1687C26.7626 25.8276 27.6112 26.3355 27.6112 26.3355L27.2436 26.7244Z" fill="#F0F0F0"/>
<path d="M12.5404 24.0019H11.8052C11.8052 24.0019 11.8052 23.2241 11.0701 22.0573C10.3349 20.8905 8.49701 20.5016 8.49701 20.5016V19.7238C8.49701 19.7238 10.0216 19.2774 10.7025 18.557C11.3834 17.8365 11.8052 16.2234 11.8052 16.2234H12.5404C12.5404 16.2234 12.9746 17.8237 13.6431 18.557C14.2242 19.1944 15.8486 19.7238 15.8486 19.7238V20.5016C15.8486 20.5016 14.2242 21.031 13.6431 21.6684C12.9746 22.4017 12.5404 24.0019 12.5404 24.0019Z" fill="#F0F0F0"/>
</svg>
