<svg width="10" height="10" viewBox="0 0 10 10" fill="none" xmlns="http://www.w3.org/2000/svg">
<path d="M1.66667 7.5H8.33333C8.5625 7.5 8.75 7.3125 8.75 7.08333C8.75 6.85417 8.5625 6.66667 8.33333 6.66667H1.66667C1.4375 6.66667 1.25 6.85417 1.25 7.08333C1.25 7.3125 1.4375 7.5 1.66667 7.5ZM1.66667 5.41667H8.33333C8.5625 5.41667 8.75 5.22917 8.75 5C8.75 4.77083 8.5625 4.58333 8.33333 4.58333H1.66667C1.4375 4.58333 1.25 4.77083 1.25 5C1.25 5.22917 1.4375 5.41667 1.66667 5.41667ZM1.25 2.91667C1.25 3.14583 1.4375 3.33333 1.66667 3.33333H8.33333C8.5625 3.33333 8.75 3.14583 8.75 2.91667C8.75 2.6875 8.5625 2.5 8.33333 2.5H1.66667C1.4375 2.5 1.25 2.6875 1.25 2.91667Z" fill="#F2F2F2"/>
</svg>
