<svg width="10" height="10" viewBox="0 0 10 10" fill="none" xmlns="http://www.w3.org/2000/svg">
<path d="M7.59091 2.20455C7.59091 2.1503 7.61246 2.09827 7.65082 2.05991C7.68918 2.02155 7.74121 2 7.79545 2C7.8497 2 7.90173 2.02155 7.94009 2.05991C7.97845 2.09827 8 2.1503 8 2.20455V7.79545C8 7.8497 7.97845 7.90173 7.94009 7.94009C7.90173 7.97845 7.8497 8 7.79545 8C7.74121 8 7.68918 7.97845 7.65082 7.94009C7.61246 7.90173 7.59091 7.8497 7.59091 7.79545V2.20455ZM2 2.61473C2 2.11945 2.55664 1.82818 2.96355 2.11073L6.37373 4.478C6.45484 4.53428 6.52117 4.6093 6.56709 4.69669C6.61302 4.78408 6.63718 4.88126 6.63753 4.97999C6.63787 5.07871 6.6144 5.17606 6.56909 5.26377C6.52378 5.35148 6.45798 5.42697 6.37727 5.48382L2.96709 7.88655C2.56073 8.17291 2 7.88273 2 7.385V2.61473Z" fill="#F2F2F2"/>
</svg>
