<svg width="10" height="10" viewBox="0 0 10 10" fill="none" xmlns="http://www.w3.org/2000/svg">
<path d="M2.59761 8.59372C2.47769 8.5935 2.3599 8.56207 2.25581 8.50251C2.02144 8.3697 1.87573 8.11189 1.87573 7.83201V2.16794C1.87573 1.88728 2.02144 1.63025 2.25581 1.49743C2.36237 1.43619 2.48343 1.4047 2.60633 1.40624C2.72923 1.40779 2.84945 1.44232 2.95444 1.50622L7.79526 4.40388C7.89615 4.46714 7.97932 4.55499 8.03697 4.65918C8.09462 4.76337 8.12486 4.8805 8.12486 4.99958C8.12486 5.11866 8.09462 5.23579 8.03697 5.33999C7.97932 5.44418 7.89615 5.53203 7.79526 5.59529L2.95366 8.49372C2.84622 8.55868 2.72316 8.59324 2.59761 8.59372Z" fill="#F2F2F2"/>
</svg>
