<svg width="10" height="10" viewBox="0 0 10 10" fill="none" xmlns="http://www.w3.org/2000/svg">
<path d="M2.40909 7.79546C2.40909 7.8497 2.38754 7.90173 2.34918 7.94009C2.31082 7.97845 2.25879 8 2.20455 8C2.1503 8 2.09827 7.97845 2.05991 7.94009C2.02155 7.90173 2 7.8497 2 7.79546L2 2.20455C2 2.1503 2.02155 2.09827 2.05991 2.05991C2.09827 2.02155 2.1503 2 2.20454 2C2.25879 2 2.31082 2.02155 2.34918 2.05991C2.38754 2.09827 2.40909 2.1503 2.40909 2.20455L2.40909 7.79546ZM8 7.38527C8 7.88055 7.44336 8.17182 7.03645 7.88927L3.62627 5.522C3.54516 5.46572 3.47883 5.3907 3.43291 5.30331C3.38698 5.21592 3.36282 5.11874 3.36247 5.02001C3.36213 4.92129 3.3856 4.82394 3.43091 4.73623C3.47622 4.64852 3.54202 4.57303 3.62273 4.51618L7.03291 2.11345C7.43927 1.82709 8 2.11727 8 2.615L8 7.38527Z" fill="#F2F2F2"/>
</svg>
