<svg width="24" height="24" viewBox="0 0 24 24" fill="none" xmlns="http://www.w3.org/2000/svg">
<path fill-rule="evenodd" clip-rule="evenodd" d="M14.3851 15.446C13.0372 16.5229 11.3282 17.0429 9.60898 16.8991C7.88975 16.7552 6.29084 15.9586 5.14064 14.6727C3.99044 13.3869 3.37626 11.7094 3.42425 9.9848C3.47223 8.26024 4.17874 6.6195 5.39866 5.39958C6.61859 4.17965 8.25932 3.47315 9.98389 3.42516C11.7085 3.37717 13.3859 3.99135 14.6718 5.14155C15.9577 6.29175 16.7543 7.89066 16.8981 9.60989C17.042 11.3291 16.522 13.0382 15.4451 14.386L20.6011 19.541C20.6748 19.6097 20.7339 19.6925 20.7749 19.7845C20.8159 19.8765 20.8379 19.9758 20.8397 20.0765C20.8415 20.1772 20.8229 20.2772 20.7852 20.3706C20.7475 20.464 20.6913 20.5488 20.6201 20.62C20.5489 20.6913 20.4641 20.7474 20.3707 20.7851C20.2773 20.8228 20.1773 20.8414 20.0766 20.8396C19.9759 20.8378 19.8765 20.8158 19.7845 20.7748C19.6926 20.7338 19.6098 20.6747 19.5411 20.601L14.3851 15.446ZM6.45909 13.884C5.72513 13.15 5.22524 12.2148 5.0226 11.1968C4.81996 10.1787 4.92366 9.12344 5.3206 8.1643C5.71754 7.20517 6.3899 6.38523 7.2527 5.8081C8.11551 5.23098 9.13003 4.92258 10.1681 4.92189C11.2061 4.92119 12.221 5.22822 13.0846 5.80418C13.9482 6.38014 14.6216 7.19917 15.0199 8.15778C15.4181 9.11638 15.5232 10.1715 15.322 11.1898C15.1207 12.2082 14.6221 13.144 13.8891 13.879L13.8841 13.884L13.8791 13.888C12.8942 14.8706 11.5595 15.4221 10.1683 15.4214C8.777 15.4206 7.44293 14.8677 6.45909 13.884Z" fill="#F2F2F2"/>
</svg>
