<svg width="24" height="24" viewBox="0 0 24 24" fill="none" xmlns="http://www.w3.org/2000/svg">
<rect x="18.1001" y="2" width="1" height="1" fill="black"/>
<rect x="18.3999" y="2" width="1" height="1" fill="black"/>
<rect x="18.7" y="2" width="1" height="1" fill="black"/>
<rect x="19" y="2" width="1" height="1" fill="black"/>
<rect x="19.3" y="2" width="1" height="1" fill="black"/>
<rect x="19.6001" y="2" width="1" height="1" fill="black"/>
<rect x="19.8999" y="2" width="1" height="1" fill="black"/>
<rect x="20.2" y="2" width="1" height="1" fill="black"/>
<rect x="20.5" y="2" width="1" height="1" fill="black"/>
<rect x="20.8" y="2" width="1" height="1" fill="black"/>
<rect x="21.1001" y="2" width="1" height="1" fill="black"/>
<rect x="17.8" y="2" width="1" height="1" fill="black"/>
<rect x="20.8" y="2.30005" width="1" height="1" fill="black"/>
<rect x="20.5" y="2.6001" width="1" height="1" fill="black"/>
<rect x="20.5" y="2.8999" width="1" height="1" fill="black"/>
<rect x="20.2" y="3.19995" width="1" height="1" fill="black"/>
<rect x="19.8999" y="3.5" width="1" height="1" fill="black"/>
<rect x="19.6001" y="3.80005" width="1" height="1" fill="black"/>
<rect x="19.3" y="4.1001" width="1" height="1" fill="black"/>
<rect x="19" y="4.3999" width="1" height="1" fill="black"/>
<rect x="18.7" y="4.69995" width="1" height="1" fill="black"/>
<rect x="18.3999" y="5" width="1" height="1" fill="black"/>
<rect x="18.3999" y="5.30005" width="1" height="1" fill="black"/>
<rect x="18.1001" y="5.6001" width="1" height="1" fill="black"/>
<rect x="17.8" y="5.8999" width="1" height="1" fill="black"/>
<rect x="17.5" y="6.19995" width="1" height="1" fill="black"/>
<rect x="17.2" y="6.5" width="1" height="1" fill="black"/>
<rect x="16.8999" y="6.80005" width="1" height="1" fill="black"/>
<rect x="16.6001" y="7.1001" width="1" height="1" fill="black"/>
<rect x="16.3" y="7.3999" width="1" height="1" fill="black"/>
<rect x="16.3" y="7.69995" width="1" height="1" fill="black"/>
<rect x="16" y="8" width="1" height="1" fill="black"/>
<rect x="15.7" y="8.30005" width="1" height="1" fill="black"/>
<rect x="15.3999" y="8.6001" width="1" height="1" fill="black"/>
<rect x="15.1001" y="8.8999" width="1" height="1" fill="black"/>
<rect x="14.8" y="9.19995" width="1" height="1" fill="black"/>
<rect x="14.5" y="9.5" width="1" height="1" fill="black"/>
<rect x="14.2" y="9.80005" width="1" height="1" fill="black"/>
<rect x="14.2" y="10.1001" width="1" height="1" fill="black"/>
<rect x="13.8999" y="10.3999" width="1" height="1" fill="black"/>
<rect x="14.2" y="10.7" width="1" height="1" fill="black"/>
<rect x="14.5" y="11" width="1" height="1" fill="black"/>
<rect x="14.8" y="11.3" width="1" height="1" fill="black"/>
<rect x="14.8" y="11.6001" width="1" height="1" fill="black"/>
<rect x="15.1001" y="11.8999" width="1" height="1" fill="black"/>
<rect x="15.3999" y="12.2" width="1" height="1" fill="black"/>
<rect x="15.7" y="12.5" width="1" height="1" fill="black"/>
<rect x="16" y="12.8" width="1" height="1" fill="black"/>
<rect x="16" y="13.1001" width="1" height="1" fill="black"/>
<rect x="16.3" y="13.3999" width="1" height="1" fill="black"/>
<rect x="16.6001" y="13.7" width="1" height="1" fill="black"/>
<rect x="16.8999" y="14" width="1" height="1" fill="black"/>
<rect x="16.8999" y="14.3" width="1" height="1" fill="black"/>
<rect x="17.2" y="14.6001" width="1" height="1" fill="black"/>
<rect x="17.5" y="14.8999" width="1" height="1" fill="black"/>
<rect x="17.8" y="15.2" width="1" height="1" fill="black"/>
<rect x="17.8" y="15.5" width="1" height="1" fill="black"/>
<rect x="18.1001" y="15.8" width="1" height="1" fill="black"/>
<rect x="18.3999" y="16.1001" width="1" height="1" fill="black"/>
<rect x="18.7" y="16.3999" width="1" height="1" fill="black"/>
<rect x="18.7" y="16.7" width="1" height="1" fill="black"/>
<rect x="19" y="17" width="1" height="1" fill="black"/>
<rect x="19.3" y="17.3" width="1" height="1" fill="black"/>
<rect x="19.6001" y="17.6001" width="1" height="1" fill="black"/>
<rect x="19.6001" y="17.8999" width="1" height="1" fill="black"/>
<rect x="19.8999" y="18.2" width="1" height="1" fill="black"/>
<rect x="20.2" y="18.5" width="1" height="1" fill="black"/>
<rect x="20.5" y="18.8" width="1" height="1" fill="black"/>
<rect x="20.5" y="19.1001" width="1" height="1" fill="black"/>
<rect x="20.8" y="19.3999" width="1" height="1" fill="black"/>
<rect x="21.1001" y="19.7" width="1" height="1" fill="black"/>
<rect x="21.3999" y="20" width="1" height="1" fill="black"/>
<rect x="21.3999" y="20.3" width="1" height="1" fill="black"/>
<rect x="21.7" y="20.6001" width="1" height="1" fill="black"/>
<rect x="22" y="20.8999" width="1" height="1" fill="black"/>
<rect x="22.3" y="21.2" width="1" height="1" fill="black"/>
<rect x="22.3" y="21.5" width="1" height="1" fill="black"/>
<rect x="16" y="21.5" width="1" height="1" fill="black"/>
<rect x="16.3" y="21.5" width="1" height="1" fill="black"/>
<rect x="16.6001" y="21.5" width="1" height="1" fill="black"/>
<rect x="16.8999" y="21.5" width="1" height="1" fill="black"/>
<rect x="17.2" y="21.5" width="1" height="1" fill="black"/>
<rect x="17.5" y="21.5" width="1" height="1" fill="black"/>
<rect x="17.8" y="21.5" width="1" height="1" fill="black"/>
<rect x="18.1001" y="21.5" width="1" height="1" fill="black"/>
<rect x="18.3999" y="21.5" width="1" height="1" fill="black"/>
<rect x="18.7" y="21.5" width="1" height="1" fill="black"/>
<rect x="19" y="21.5" width="1" height="1" fill="black"/>
<rect x="19.3" y="21.5" width="1" height="1" fill="black"/>
<rect x="19.6001" y="21.5" width="1" height="1" fill="black"/>
<rect x="19.8999" y="21.5" width="1" height="1" fill="black"/>
<rect x="20.2" y="21.5" width="1" height="1" fill="black"/>
<rect x="20.5" y="21.5" width="1" height="1" fill="black"/>
<rect x="20.8" y="21.5" width="1" height="1" fill="black"/>
<rect x="21.1001" y="21.5" width="1" height="1" fill="black"/>
<rect x="21.3999" y="21.5" width="1" height="1" fill="black"/>
<rect x="21.7" y="21.5" width="1" height="1" fill="black"/>
<rect x="22" y="21.5" width="1" height="1" fill="black"/>
<rect x="15.7" y="21.5" width="1" height="1" fill="black"/>
<rect x="10.6001" y="14.8999" width="1" height="1" fill="black"/>
<rect x="10.8999" y="15.2" width="1" height="1" fill="black"/>
<rect x="11.2002" y="15.5" width="1" height="1" fill="black"/>
<rect x="11.5" y="15.8" width="1" height="1" fill="black"/>
<rect x="11.5" y="16.1001" width="1" height="1" fill="black"/>
<rect x="11.7998" y="16.3999" width="1" height="1" fill="black"/>
<rect x="12.1001" y="16.7" width="1" height="1" fill="black"/>
<rect x="12.3999" y="17" width="1" height="1" fill="black"/>
<rect x="12.7002" y="17.3" width="1" height="1" fill="black"/>
<rect x="12.7002" y="17.6001" width="1" height="1" fill="black"/>
<rect x="13" y="17.8999" width="1" height="1" fill="black"/>
<rect x="13.3" y="18.2" width="1" height="1" fill="black"/>
<rect x="13.6001" y="18.5" width="1" height="1" fill="black"/>
<rect x="13.6001" y="18.8" width="1" height="1" fill="black"/>
<rect x="13.8999" y="19.1001" width="1" height="1" fill="black"/>
<rect x="14.2" y="19.3999" width="1" height="1" fill="black"/>
<rect x="14.5" y="19.7" width="1" height="1" fill="black"/>
<rect x="14.5" y="20" width="1" height="1" fill="black"/>
<rect x="14.8" y="20.3" width="1" height="1" fill="black"/>
<rect x="15.1001" y="20.6001" width="1" height="1" fill="black"/>
<rect x="15.3999" y="20.8999" width="1" height="1" fill="black"/>
<rect x="15.3999" y="21.2" width="1" height="1" fill="black"/>
<rect x="10.6001" y="14.6001" width="1" height="1" fill="black"/>
<rect x="10.2998" y="14.8999" width="1" height="1" fill="black"/>
<rect x="10" y="15.2" width="1" height="1" fill="black"/>
<rect x="9.7002" y="15.5" width="1" height="1" fill="black"/>
<rect x="9.7002" y="15.8" width="1" height="1" fill="black"/>
<rect x="9.3999" y="16.1001" width="1" height="1" fill="black"/>
<rect x="9.1001" y="16.3999" width="1" height="1" fill="black"/>
<rect x="8.7998" y="16.7" width="1" height="1" fill="black"/>
<rect x="8.5" y="17" width="1" height="1" fill="black"/>
<rect x="8.2002" y="17.3" width="1" height="1" fill="black"/>
<rect x="7.8999" y="17.6001" width="1" height="1" fill="black"/>
<rect x="7.6001" y="17.8999" width="1" height="1" fill="black"/>
<rect x="7.6001" y="18.2" width="1" height="1" fill="black"/>
<rect x="7.2998" y="18.5" width="1" height="1" fill="black"/>
<rect x="7" y="18.8" width="1" height="1" fill="black"/>
<rect x="6.7002" y="19.1001" width="1" height="1" fill="black"/>
<rect x="6.3999" y="19.3999" width="1" height="1" fill="black"/>
<rect x="6.1001" y="19.7" width="1" height="1" fill="black"/>
<rect x="5.7998" y="20" width="1" height="1" fill="black"/>
<rect x="5.5" y="20.3" width="1" height="1" fill="black"/>
<rect x="5.5" y="20.6001" width="1" height="1" fill="black"/>
<rect x="5.2002" y="20.8999" width="1" height="1" fill="black"/>
<rect x="4.8999" y="21.2" width="1" height="1" fill="black"/>
<rect x="4.6001" y="21.5" width="1" height="1" fill="black"/>
<rect x="1.2998" y="21.5" width="1" height="1" fill="black"/>
<rect x="1.6001" y="21.5" width="1" height="1" fill="black"/>
<rect x="1.8999" y="21.5" width="1" height="1" fill="black"/>
<rect x="2.2002" y="21.5" width="1" height="1" fill="black"/>
<rect x="2.5" y="21.5" width="1" height="1" fill="black"/>
<rect x="2.7998" y="21.5" width="1" height="1" fill="black"/>
<rect x="3.1001" y="21.5" width="1" height="1" fill="black"/>
<rect x="3.3999" y="21.5" width="1" height="1" fill="black"/>
<rect x="3.7002" y="21.5" width="1" height="1" fill="black"/>
<rect x="4" y="21.5" width="1" height="1" fill="black"/>
<rect x="4.2998" y="21.5" width="1" height="1" fill="black"/>
<rect x="8.7998" y="12.8" width="1" height="1" fill="black"/>
<rect x="8.5" y="13.1001" width="1" height="1" fill="black"/>
<rect x="8.5" y="13.3999" width="1" height="1" fill="black"/>
<rect x="8.2002" y="13.7" width="1" height="1" fill="black"/>
<rect x="7.8999" y="14" width="1" height="1" fill="black"/>
<rect x="7.6001" y="14.3" width="1" height="1" fill="black"/>
<rect x="7.2998" y="14.6001" width="1" height="1" fill="black"/>
<rect x="7" y="14.8999" width="1" height="1" fill="black"/>
<rect x="6.7002" y="15.2" width="1" height="1" fill="black"/>
<rect x="6.3999" y="15.5" width="1" height="1" fill="black"/>
<rect x="6.3999" y="15.8" width="1" height="1" fill="black"/>
<rect x="6.1001" y="16.1001" width="1" height="1" fill="black"/>
<rect x="5.7998" y="16.3999" width="1" height="1" fill="black"/>
<rect x="5.5" y="16.7" width="1" height="1" fill="black"/>
<rect x="5.2002" y="17" width="1" height="1" fill="black"/>
<rect x="4.8999" y="17.3" width="1" height="1" fill="black"/>
<rect x="4.6001" y="17.6001" width="1" height="1" fill="black"/>
<rect x="4.2998" y="17.8999" width="1" height="1" fill="black"/>
<rect x="4.2998" y="18.2" width="1" height="1" fill="black"/>
<rect x="4" y="18.5" width="1" height="1" fill="black"/>
<rect x="3.7002" y="18.8" width="1" height="1" fill="black"/>
<rect x="3.3999" y="19.1001" width="1" height="1" fill="black"/>
<rect x="3.1001" y="19.3999" width="1" height="1" fill="black"/>
<rect x="2.7998" y="19.7" width="1" height="1" fill="black"/>
<rect x="2.5" y="20" width="1" height="1" fill="black"/>
<rect x="2.2002" y="20.3" width="1" height="1" fill="black"/>
<rect x="2.2002" y="20.6001" width="1" height="1" fill="black"/>
<rect x="1.8999" y="20.8999" width="1" height="1" fill="black"/>
<rect x="1.6001" y="21.2" width="1" height="1" fill="black"/>
<rect x="9.1001" y="12.8" width="1" height="1" fill="black"/>
<rect x="1" y="2" width="1" height="1" fill="black"/>
<rect x="1" y="2.30005" width="1" height="1" fill="black"/>
<rect x="1.2998" y="2.6001" width="1" height="1" fill="black"/>
<rect x="1.6001" y="2.8999" width="1" height="1" fill="black"/>
<rect x="1.8999" y="3.19995" width="1" height="1" fill="black"/>
<rect x="1.8999" y="3.5" width="1" height="1" fill="black"/>
<rect x="2.2002" y="3.80005" width="1" height="1" fill="black"/>
<rect x="2.5" y="4.1001" width="1" height="1" fill="black"/>
<rect x="2.7998" y="4.3999" width="1" height="1" fill="black"/>
<rect x="2.7998" y="4.69995" width="1" height="1" fill="black"/>
<rect x="3.1001" y="5" width="1" height="1" fill="black"/>
<rect x="3.3999" y="5.30005" width="1" height="1" fill="black"/>
<rect x="3.7002" y="5.6001" width="1" height="1" fill="black"/>
<rect x="3.7002" y="5.8999" width="1" height="1" fill="black"/>
<rect x="4" y="6.19995" width="1" height="1" fill="black"/>
<rect x="4.2998" y="6.5" width="1" height="1" fill="black"/>
<rect x="4.6001" y="6.80005" width="1" height="1" fill="black"/>
<rect x="4.8999" y="7.1001" width="1" height="1" fill="black"/>
<rect x="4.8999" y="7.3999" width="1" height="1" fill="black"/>
<rect x="5.2002" y="7.69995" width="1" height="1" fill="black"/>
<rect x="5.5" y="8" width="1" height="1" fill="black"/>
<rect x="5.7998" y="8.30005" width="1" height="1" fill="black"/>
<rect x="5.7998" y="8.6001" width="1" height="1" fill="black"/>
<rect x="6.1001" y="8.8999" width="1" height="1" fill="black"/>
<rect x="6.3999" y="9.19995" width="1" height="1" fill="black"/>
<rect x="6.7002" y="9.5" width="1" height="1" fill="black"/>
<rect x="6.7002" y="9.80005" width="1" height="1" fill="black"/>
<rect x="7" y="10.1001" width="1" height="1" fill="black"/>
<rect x="7.2998" y="10.3999" width="1" height="1" fill="black"/>
<rect x="7.6001" y="10.7" width="1" height="1" fill="black"/>
<rect x="7.6001" y="11" width="1" height="1" fill="black"/>
<rect x="7.8999" y="11.3" width="1" height="1" fill="black"/>
<rect x="8.2002" y="11.6001" width="1" height="1" fill="black"/>
<rect x="8.5" y="11.8999" width="1" height="1" fill="black"/>
<rect x="8.7998" y="12.2" width="1" height="1" fill="black"/>
<rect x="8.7998" y="12.5" width="1" height="1" fill="black"/>
<rect x="1.2998" y="2" width="1" height="1" fill="black"/>
<rect x="1.6001" y="2" width="1" height="1" fill="black"/>
<rect x="1.8999" y="2" width="1" height="1" fill="black"/>
<rect x="2.2002" y="2" width="1" height="1" fill="black"/>
<rect x="2.5" y="2" width="1" height="1" fill="black"/>
<rect x="2.7998" y="2" width="1" height="1" fill="black"/>
<rect x="3.1001" y="2" width="1" height="1" fill="black"/>
<rect x="3.3999" y="2" width="1" height="1" fill="black"/>
<rect x="3.7002" y="2" width="1" height="1" fill="black"/>
<rect x="4" y="2" width="1" height="1" fill="black"/>
<rect x="4.2998" y="2" width="1" height="1" fill="black"/>
<rect x="4.6001" y="2" width="1" height="1" fill="black"/>
<rect x="4.8999" y="2" width="1" height="1" fill="black"/>
<rect x="5.2002" y="2" width="1" height="1" fill="black"/>
<rect x="5.5" y="2" width="1" height="1" fill="black"/>
<rect x="5.7998" y="2" width="1" height="1" fill="black"/>
<rect x="6.1001" y="2" width="1" height="1" fill="black"/>
<rect x="6.3999" y="2" width="1" height="1" fill="black"/>
<rect x="6.7002" y="2" width="1" height="1" fill="black"/>
<rect x="7" y="2" width="1" height="1" fill="black"/>
<rect x="7.2998" y="2" width="1" height="1" fill="black"/>
<rect x="7.6001" y="2" width="1" height="1" fill="black"/>
<rect x="7.8999" y="2.30005" width="1" height="1" fill="black"/>
<rect x="8.2002" y="2.6001" width="1" height="1" fill="black"/>
<rect x="8.5" y="2.8999" width="1" height="1" fill="black"/>
<rect x="8.5" y="3.19995" width="1" height="1" fill="black"/>
<rect x="8.7998" y="3.5" width="1" height="1" fill="black"/>
<rect x="9.1001" y="3.80005" width="1" height="1" fill="black"/>
<rect x="9.3999" y="4.1001" width="1" height="1" fill="black"/>
<rect x="9.3999" y="4.3999" width="1" height="1" fill="black"/>
<rect x="9.7002" y="4.69995" width="1" height="1" fill="black"/>
<rect x="10" y="5" width="1" height="1" fill="black"/>
<rect x="10.2998" y="5.30005" width="1" height="1" fill="black"/>
<rect x="10.2998" y="5.6001" width="1" height="1" fill="black"/>
<rect x="10.6001" y="5.8999" width="1" height="1" fill="black"/>
<rect x="10.8999" y="6.19995" width="1" height="1" fill="black"/>
<rect x="11.2002" y="6.5" width="1" height="1" fill="black"/>
<rect x="11.2002" y="6.80005" width="1" height="1" fill="black"/>
<rect x="11.5" y="7.1001" width="1" height="1" fill="black"/>
<rect x="11.7998" y="7.3999" width="1" height="1" fill="black"/>
<rect x="12.1001" y="7.69995" width="1" height="1" fill="black"/>
<rect x="12.1001" y="8" width="1" height="1" fill="black"/>
<rect x="12.3999" y="8.30005" width="1" height="1" fill="black"/>
<rect x="17.5" y="2.30005" width="1" height="1" fill="black"/>
<rect x="17.2" y="2.6001" width="1" height="1" fill="black"/>
<rect x="17.2" y="2.8999" width="1" height="1" fill="black"/>
<rect x="16.8999" y="3.19995" width="1" height="1" fill="black"/>
<rect x="16.6001" y="3.5" width="1" height="1" fill="black"/>
<rect x="16.3" y="3.80005" width="1" height="1" fill="black"/>
<rect x="16" y="4.1001" width="1" height="1" fill="black"/>
<rect x="15.7" y="4.3999" width="1" height="1" fill="black"/>
<rect x="15.3999" y="4.69995" width="1" height="1" fill="black"/>
<rect x="15.1001" y="5" width="1" height="1" fill="black"/>
<rect x="15.1001" y="5.30005" width="1" height="1" fill="black"/>
<rect x="14.8" y="5.6001" width="1" height="1" fill="black"/>
<rect x="14.5" y="5.8999" width="1" height="1" fill="black"/>
<rect x="14.2" y="6.19995" width="1" height="1" fill="black"/>
<rect x="13.8999" y="6.5" width="1" height="1" fill="black"/>
<rect x="13.6001" y="6.80005" width="1" height="1" fill="black"/>
<rect x="13.3" y="7.1001" width="1" height="1" fill="black"/>
<rect x="13" y="7.3999" width="1" height="1" fill="black"/>
<rect x="13" y="7.69995" width="1" height="1" fill="black"/>
<rect x="12.7002" y="8" width="1" height="1" fill="black"/>
<path d="M18.8766 19.77H17.0436L5.07764 4.12598H7.04464L18.8766 19.77Z" fill="black"/>
</svg>
